<svg xmlns="http://www.w3.org/2000/svg" viewBox="0 0 720 720"><g style="fill:#fffff7"><path d="m0 0h720v720h-720z"/><path d="m0 719v1h12.5 12.5 13.5 13.5 13 13 11.5 11.5 13 13 13.5 13.5 13.5 13.5 13 13 13.5 13.5 13 13 11.5 11.5 13 13 11.5 11.5 13 13 13.5 13.5 13 13 11.5 11.5 13 13 13.5 13.5 13.5 13.5 13 13 13.5 13.5 13 13 11.5 11.5 13 13 11.5 11.5 13 13 13.5 13.5 1 1v-12-12-11.5-11.5-13-13-13.5-13.5-13.5-13.5-13-13-13.5-13.5-13-13-11.5-11.5-13-13-11.5-11.5-13-13-13.5-13.5-13-13-11.5-11.5-13-13-13.5-13.5-13.5-13.5-13-13-13.5-13.5-13-13-11.5-11.5-13-13-13.5-13.5-13.5-13.5-13-13-13.5-13.5-12.5-12.5h-.5-.5-11.5-11.5-13-13-11.5-11.5-13-13-13.5-13.5-13-13-11.5-11.5-13-13-13.5-13.5-13.5-13.5-13-13-13.5-13.5-13-13-11.5-11.5-13-13-11.5-11.5-13-13-13.5-13.5-13-13-11.5-11.5-13-13-13.5-13.5-13.5-13.5-13-13-13.5-13.5-13-13-11.5-11.5-13-13-2-2v9.5 9.5 13 13 13.5 13.5 13 13 11.5 11.5 13 13 13.5 13.5 13.5 13.5 13 13 13.5 13.5 13 13 11.5 11.5 13 13 11.5 11.5 13 13 13.5 13.5 13 13 11.5 11.5 13 13 13.5 13.5 13.5 13.5 13 13 13.5 13.5 13 13 11.5 11.5 13 13 11.5 11.5 13 13 4 4" style="stroke:#fffff7;stroke-linejoin:round;stroke-width:.7"/></g><g style="stroke-linejoin:round;stroke-width:.7"><path d="m69 718l25 1 13-.5 13-.5h-13-13-11.5-11.5-1-1" style="fill:#f8f3d0;stroke:#f8f3d0"/><path d="m362 716l3 1 .5-.5.5-.5-1-.5-1-.5v-11-11l.5-11.5.5-11.5.5-12 .5-12v-11-11-12.5-12.5-12-12-11.5-11.5l.5-11.5.5-11.5v-12-12-10.5-10.5-12-12-12.5-12.5-12-12-18-18l-.5 12.5-.5 12.5v13 13 11.5 11.5l-.5 12.5-.5 12.5v13.5 13.5 13.5 13.5l-.5 12.5-.5 12.5v12.5 12.5 13 13 11.5 11.5l-1 12-1 12v13.5 13.5l-.5 13-.5 13 .5 6 .5 6" style="fill:#eddee0;stroke:#eddee0"/><path d="m364 715l2 1v-.5-.5l-.5-.5-.5-.5.5-11 .5-11 .5-11 .5-11 .5-10 .5-10 .5-10 .5-10v-11-11l-.5-11.5-.5-11.5-.5-11-.5-11 .5-11.5.5-11.5v-11-11-11.5-11.5-12-12-12.5-12.5-22-22-.5-.5-1.5-1.5-2.5-2.5-2-2-2.5-2.5-2-2-2-2-2.5-2.5-2.5-2.5h-.5-.5v1.5 1.5 2 2 1 1 18 18 12 12 12.5 12.5 12 12 10.5 10.5 12 12l-.5 11.5-.5 11.5v11.5 11.5 12 12 12.5 12.5 11 11l-.5 12-.5 12-.5 11.5-.5 11.5v11 11" style="fill:#ded0cf;stroke:#ded0cf"/><path d="m366 715v1l7-5.5 7-5.5 11-2.5 11-2.5 7.5-.5 7.5-.5.5-.5.5-.5h-1.5-1.5l-1-.5-1-.5-4.5-5.5-4.5-5.5-1 2-1 2 1-9.5 1-9.5-.5-11.5-.5-11.5.5-10 .5-10 2 9 2 9 1.5 11 1.5 11 3.5.5 3.5.5 1.5-10 1.5-10 2.5-8.5 2.5-8.5 4.5-16 4.5-16v-3-3-2.5-2.5l.5-1.5.5-1.5v-3.5-3.5-.5-.5l-1-11.5-1-11.5 1-9.5 1-9.5v-15.5-15.5-2-2l-.5-.5-.5-.5v-2.5-2.5-1-1-1.5-1.5-2-2l-.5-.5-.5-.5h-.5-.5l-.5 1.5-.5 1.5v1 1 1 1l-.5.5-.5.5-.5 2-.5 2v1.5 1.5 2 2l-.5 1.5-.5 1.5-.5 3-.5 3-1 11-1 11-2 10-2 10 .5 10 .5 10-4 11.5-4 11.5-.5-7.5-.5-7.5-3.5-7.5-3.5-7.5-1-10.5-1-10.5-1.5-10.5-1.5-10.5-1.5-10-1.5-10-1-11-1-11-.5-18-.5-18-.5-1-.5-1v-2-2-2-2l-.5-.5-.5-.5v-1.5-1.5l.5-1.5.5-1.5-.5-.5-.5-.5v-1.5-1.5l.5-1.5.5-1.5-1-1.5-1-1.5-.5 10.5-.5 10.5 1 11.5 1 11.5.5 13 .5 13 .5 11.5.5 11.5v11.5 11.5l-.5 9.5-.5 9.5.5 7 .5 7-4-3-4-3 .5 10 .5 10 2.5 9 2.5 9-1.5 10.5-1.5 10.5-2 5.5-2 5.5-1-11-1-11-1-9.5-1-9.5-.5-11.5-.5-11.5-.5-11-.5-11-1-12-1-12-.5-13-.5-13v-12-12l-1-10.5-1-10.5v-12-12l-1-12-1-12v1.5 1.5 1 1 1 1 1.5 1.5 1 1 1 1 1 1 1.5 1.5 1 1 1 1 1 1 1.5 1.5 1 1 1 1 2 2 2 2l.5 13.5.5 13.5.5 11.5.5 11.5.5 13 .5 13 .5 12.5.5 12.5.5 11 .5 11 .5 12.5.5 12.5.5 11 .5 11 .5 12.5.5 12.5.5 11 .5 11 1 9 1 9-4 12-4 12-1.5.5-1.5.5-1 .5-1 .5h-1.5-1.5l-.5-1-.5-1-.5 1-.5 1 .5 1 .5 1 .5.5.5.5-1 1-1 1-.5 2-.5 2" style="fill:#eddee0;stroke:#eddee0"/><path d="m365 714l1 1 .5-2 .5-2-.5-.5-.5-.5 1-11.5 1-11.5 1-10.5 1-10.5.5-12.5.5-12.5v-10.5-10.5l-.5-12.5-.5-12.5v-10.5-10.5-11-11-10.5-10.5-12-12-10.5-10.5l-.5-11.5-.5-11.5v-20-20-1.5-1.5l.5-.5.5-.5v-1.5-1.5-2-2l-.5-2-.5-2v-3-3h-.5-.5v22 22 12.5 12.5 12 12 11.5 11.5 11 11l-.5 11.5-.5 11.5.5 11 .5 11 .5 11.5.5 11.5v11 11l-.5 10-.5 10-.5 10-.5 10-.5 11-.5 11-.5 11-.5 11" style="fill:#cebec1;stroke:#cebec1"/><path d="m366 710l1 1 1-1 1-1-.5-.5-.5-.5-.5-1-.5-1 .5-1 .5-1 1-10.5 1-10.5 1-10.5 1-10.5 1.5-8.5 1.5-8.5.5 12 .5 12-1 18-1 18 1.5-.5 1.5-.5v-.5-.5l1-9 1-9v-11.5-11.5l-1-10.5-1-10.5v-10.5-10.5-22-22-12.5-12.5l-1-17.5-1-17.5-.5-.5-.5-.5-.5-12.5-.5-12.5v-24.5-24.5-.5-.5-1.5-1.5-1.5-1.5-2-2-1-1-1-1-1-1-1.5-1.5-1-1-1-1l-.5-1-.5-1v2 2 1.5 1.5 2 2 2 2 1 1 1.5 1.5 2 2 1 1 1.5 1.5 2 2 1 1 1.5 1.5 2 2l-.5.5-.5.5v-2.5-2.5l-.5-1.5-.5-1.5v-1-1-1.5-1.5-2-2-1-1-1.5-1.5-2-2-1-1-1.5-1.5l-.5-2-.5-2v20 20l.5 11.5.5 11.5v10.5 10.5 12 12 10.5 10.5 11 11 10.5 10.5l.5 12.5.5 12.5v10.5 10.5l-.5 12.5-.5 12.5-1 10.5-1 10.5-1 11.5-1 11.5" style="fill:#bfb1b0;stroke:#bfb1b0"/><path d="m369 706h3v-.5-.5l1.5-10.5 1.5-10.5-3.5 10-3.5 10 .5 1 .5 1" style="fill:#939095;stroke:#939095"/><path d="m372 705v1l1-.5 1-.5 1-18 1-18-.5-12-.5-12-1.5 8.5-1.5 8.5-1 10.5-1 10.5-1 10.5-1 10.5 3.5-10 3.5-10-1.5 10.5-1.5 10.5" style="fill:#b1a0a3;stroke:#b1a0a3"/><path d="m377 704l8-24-1-9-1-9-.5-11-.5-11-.5-12.5-.5-12.5-.5-11-.5-11-.5-12.5-.5-12.5-.5-11-.5-11-.5-12.5-.5-12.5-.5-13-.5-13-.5-11.5-.5-11.5-.5-13.5-.5-13.5v13 13l.5 22.5.5 22.5 1 17.5 1 17.5v12.5 12.5l.5 13 .5 13 .5 11.5.5 11.5.5 9 .5 9 .5 11.5.5 11.5v9.5 9.5l-2 9.5-2 9.5" style="fill:#ded0cf;stroke:#ded0cf"/><path d="m377 703v1l2-9.5 2-9.5v-9.5-9.5l-.5-11.5-.5-11.5-.5-9-.5-9-.5-11.5-.5-11.5-.5-13-.5-13v22 22 10.5 10.5l1 10.5 1 10.5v11.5 11.5l-1 9-1 9" style="fill:#cebec1;stroke:#cebec1"/><path d="m413 697l2 1h1.5 1.5v-.5-.5l-1-.5-1-.5.5-1 .5-1 .5-1.5.5-1.5.5-1.5.5-1.5 1-1.5 1-1.5.5-1.5.5-1.5.5-2 .5-2 1-1 1-1v2.5 2.5h.5.5v-1.5-1.5l.5-2 .5-2 .5-1.5.5-1.5.5-1 .5-1 .5-9.5.5-9.5 1.5-9 1.5-9 1-16 1-16-4.5 16-4.5 16-2.5 8.5-2.5 8.5-1.5 10-1.5 10-3.5-.5-3.5-.5-1.5-11-1.5-11-2-9-2-9-.5 10-.5 10 .5 11.5.5 11.5-1 9.5-1 9.5 1-2 1-2 4.5 5.5 4.5 5.5" style="fill:#ded0cf;stroke:#ded0cf"/><path d="m418 697v1l1-.5 1-.5 1.5-.5 1.5-.5 1-1.5 1-1.5v-2-2l.5-2 .5-2v-2-2h-.5-.5l-1 1-1 1-.5 1.5-.5 1.5-.5 1.5-.5 1.5-.5 2-.5 2 1 1 1 1-2 1-2 1" style="fill:#bfb1b0;stroke:#bfb1b0"/><path d="m416 696l2 1 2-1 2-1-1-1-1-1 .5-2 .5-2 .5-1.5.5-1.5.5-1.5.5-1.5 1-1 1-1v-2.5-2.5l-1 1-1 1-.5 2-.5 2-.5 1.5-.5 1.5-1 1.5-1 1.5-.5 1.5-.5 1.5-.5 1.5-.5 1.5-.5 1-.5 1" style="fill:#cebec1;stroke:#cebec1"/><path d="m279 688l10-12-1-12.5-1-12.5-1-12-1-12-.5-11-.5-11-.5-12.5-.5-12.5v-13.5-13.5-13.5-13.5l.5-12.5.5-12.5 1-12.5 1-12.5v-13-13-11.5-11.5l1-12 1-12 1-10.5 1-10.5 1.5-11.5 1.5-11.5 1.5-12 1.5-12 2-11 2-11 2.5-9 2.5-9 3-10 3-10 3.5-8 3.5-8 11-2 11-2 13 .5 13 .5 10 2 10 2-2.5 8-2.5 8-1.5 10.5-1.5 10.5 1 9.5 1 9.5 5.5 2 5.5 2-.5 12.5-.5 12.5-.5 13-.5 13 1 12 1 12v11.5 11.5l1 1.5 1 1.5 1 1.5 1 1.5-.5 1.5-.5 1.5v1.5 1.5l.5.5.5.5-.5 1.5-.5 1.5v1.5 1.5l.5.5.5.5v2 2 2 2l.5 1 .5 1 .5 2 .5 2v2.5 2.5 2 2 2 2l.5 1 .5 1v-2-2-1-1-1-1-2-2-1.5-1.5-1.5-1.5-1-1-1-1-1-1l-.5-.5-.5-.5v-1.5-1.5-1-1-1-1-1-1-1-1-1.5-1.5l-.5-.5-.5-.5.5-.5.5-.5.5.5.5.5.5 1 .5 1 .5 1 .5 1h.5.5l.5-1.5.5-1.5h1.5 1.5l1-1.5 1-1.5.5-1 .5-1 1-1.5 1-1.5 1-1 1-1 .5-1.5.5-1.5v-2.5-2.5-2.5-2.5l.5-2 .5-2v-.5-.5l-.5-12-.5-12 1-15.5 1-15.5v-2.5-2.5-2-2-2-2l.5-2 .5-2 1.5.5 1.5.5 1 1.5 1 1.5v2 2l.5 2 .5 2v1.5 1.5l.5 1.5.5 1.5v1 1 1 1 1 1 1 1l.5 2 .5 2 .5 1 .5 1 .5 1 .5 1v2 2l.5 2 .5 2v2 2 2.5 2.5 2 2l.5 2 .5 2 .5 1.5.5 1.5-.5 2-.5 2 .5 2.5.5 2.5v-11.5-11.5l-1.5-10-1.5-10-4.5-16-4.5-16h-1.5-1.5l-1 1-1 1-.5 1.5-.5 1.5.5 2 .5 2v2.5 2.5 2 2 2.5 2.5l-.5 1.5-.5 1.5v2.5 2.5 2 2 2 2 2.5 2.5l-.5 1-.5 1v2.5 2.5 2.5 2.5 2 2 2.5 2.5 2 2 1.5 1.5l.5 1.5.5 1.5-.5.5-.5.5v1 1l-.5 1-.5 1 .5.5.5.5v1 1l-.5.5-.5.5.5 1 .5 1v1 1l-.5.5-.5.5v1 1h-1.5-1.5l-.5.5-.5.5v1 1l-.5-.5-.5-.5h-1-1l.5-1 .5-1-.5-1-.5-1 1.5-.5 1.5-.5.5-1.5.5-1.5-1 .5-1 .5-.5.5-.5.5h-1-1l-.5.5-.5.5-.5 1-.5 1-.5-.5-.5-.5-.5.5-.5.5-1 .5-1 .5h-.5-.5v-13.5-13.5l-1-12-1-12 .5-11 .5-11-.5-14-.5-14v-.5-.5h-1.5-1.5-2.5-2.5l-1-1-1-1-1.5-.5-1.5-.5v-2-2l2.5-10.5 2.5-10.5 3.5-14.5 3.5-14.5-.5-1-.5-1 2-.5 2-.5 1.5.5 1.5.5h1.5 1.5l2.5.5 2.5.5h2 2 2 2 1 1l.5-.5.5-.5 1 .5 1 .5h1 1l.5.5.5.5h1.5 1.5l1.5-.5 1.5-.5.5-.5.5-.5v-.5-.5h-1.5-1.5l.5-1.5.5-1.5.5-1.5.5-1.5.5-2 .5-2 1-1 1-1v-2.5-2.5l1-1.5 1-1.5.5-1 .5-1 .5-1.5.5-1.5.5-.5.5-.5v-1.5-1.5l.5-1 .5-1-2.5-4-2.5-4-1.5-10.5-1.5-10.5-3-9-3-9-3.5-8.5-3.5-8.5-3-12-3-12 8.5-2 8.5-2 6.5 4.5 6.5 4.5 5 3.5 5 3.5 4.5 8 4.5 8 3 8.5 3 8.5 1 6.5 1 6.5 2 10.5 2 10.5 3 8.5 3 8.5 2.5 9 2.5 9 5.5 14.5 5.5 14.5 4.5 8.5 4.5 8.5 4 7.5 4 7.5 4 7.5 4 7.5 3 8.5 3 8.5 5 8.5 5 8.5 1 1.5 1 1.5 1 1.5 1 1.5 1 1 1 1 .5 2 .5 2 1 1 1 1 .5 1 .5 1 1 1.5 1 1.5 1 1.5 1 1.5.5 1.5.5 1.5.5 2 .5 2v2 2l.5 1.5.5 1.5.5 1.5.5 1.5-2.5 5.5-2.5 5.5-2.5 5-2.5 5 .5 1 .5 1v1.5 1.5l1.5.5 1.5.5.5 1 .5 1-.5 2.5-.5 2.5-1.5 11.5-1.5 11.5-1.5 11.5-1.5 11.5-2 9.5-2 9.5-2.5 10.5-2.5 10.5-2.5 9-2.5 9-3.5 9.5-3.5 9.5-6 13.5-6 13.5-.5 1.5-.5 1.5-.5 1.5-.5 1.5-.5.5-.5.5-.5 1-.5 1-.5 1.5-.5 1.5-.5.5-.5.5-.5 1-.5 1-1 1-1 1v1 1l-1 .5-1 .5-1 2-1 2-1 1-1 1-.5 1-.5 1-1 1-1 1-.5.5-.5.5-.5 1-.5 1-1 1-1 1-1 1-1 1v11 11l-3 16.5-3 16.5-1.5.5-1.5.5-.5.5-.5.5-.5.5-.5.5h-1.5-1.5l-.5 1.5-.5 1.5h-1-1l1 .5 1 .5-1.5.5-1.5.5-.5.5-.5.5-.5.5-.5.5h-1-1-1-1l-1 .5-1 .5-1.5.5-1.5.5-1.5.5-1.5.5-1.5-.5-1.5-.5h-1.5-1.5l-2-.5-2-.5-2.5-9-2.5-9-.5-8.5-.5-8.5 1-8.5 1-8.5.5-5.5.5-5.5v-8.5-8.5l.5 3.5.5 3.5 1-8.5 1-8.5-.5-12.5-.5-12.5v-11.5-11.5-24-24-2.5-2.5-2-2-2.5-2.5-2-2l-.5-.5-.5-.5v-1.5-1.5-1.5-1.5-2-2-2.5-2.5-2-2-2.5-2.5-2.5-2.5h-.5-.5-.5-.5v1.5 1.5l-.5.5-.5.5v-1-1-1.5-1.5l-.5-.5-.5-.5v1 1 1 1l-.5 1-.5 1v2 2l-.5.5-.5.5v1.5 1.5 2.5 2.5l.5-2 .5-2 .5-2 .5-2 1 1 1 1v2.5 2.5 2 2 2 2 3.5 3.5 2.5 2.5 1 1 1 1 1 1 1.5 1.5 1 1 2 2 2 2 2.5 2.5l.5 2 .5 2 .5 12.5.5 12.5-.5 12.5-.5 12.5v2 2 2.5 2.5 2 2l-.5 1-.5 1v3.5 3.5l-.5 1.5-.5 1.5v2.5 2.5 3 3l-1 16-1 16-1.5 9-1.5 9-.5 9.5-.5 9.5 3.5 8.5 3.5 8.5 11 .5 11 .5 8.5-4.5 8.5-4.5 6-5.5 6-5.5-1-12-1-12-.5-11-.5-11 5.5-7.5 5.5-7.5 5.5-8 5.5-8 4-9 4-9 3-8.5 3-8.5 3.5-9.5 3.5-9.5 3-10.5 3-10.5 2.5-11 2.5-11 2-11 2-11 2-11.5 2-11.5 1.5-11.5 1.5-11.5 2-9.5 2-9.5-1-10-1-10-3-8.5-3-8.5-5.5-7.5-5.5-7.5-4-9.5-4-9.5-4.5-8.5-4.5-8.5-4-7.5-4-7.5-4.5-8.5-4.5-8.5-3.5-8-3.5-8-3.5-9.5-3.5-9.5-3.5-10-3.5-10-3.5-9.5-3.5-9.5-1.5-10-1.5-10-2.5-10.5-2.5-10.5-3.5-10-3.5-10-5-8.5-5-8.5-3.5-5.5-3.5-5.5-3.5-1.5-3.5-1.5 4 7 4 7-1-.5-1-.5-1.5-1-1.5-1-1-.5-1-.5-1-1-1-1-.5-1.5-.5-1.5-1-1.5-1-1.5v-2-2l-1-1.5-1-1.5-.5-1.5-.5-1.5-.5-1.5-.5-1.5-.5-1.5-.5-1.5v-1-1-1-1-1-1l-.5-2-.5-2-.5-1.5-.5-1.5-.5-2-.5-2-1-1-1-1-.5-2-.5-2-.5-1.5-.5-1.5-1-1.5-1-1.5-.5-.5-.5-.5-3-9-3-9-3-10-3-10 3.5 7 3.5 7 4 9.5 4 9.5 3 3.5 3 3.5-2.5-10.5-2.5-10.5-3-8.5-3-8.5-4.5-8.5-4.5-8.5-3.5-4.5-3.5-4.5-.5 1.5-.5 1.5.5 1.5.5 1.5.5 1 .5 1 .5.5.5.5v1 1l.5 1 .5 1-.5-.5-.5-.5-.5-.5-.5-.5h-1-1l-.5 1-.5 1v1 1 1 1l.5.5.5.5v1.5 1.5l.5 1.5.5 1.5v2 2l.5.5.5.5v1.5 1.5l.5 1.5.5 1.5.5.5.5.5v1.5 1.5.5.5l-1-.5-1-.5-.5-2-.5-2-.5-1.5-.5-1.5-1-1.5-1-1.5-.5-1.5-.5-1.5-.5-.5-.5-.5-.5-1-.5-1-.5-.5-.5-.5-.5-.5-.5-.5-1-1.5-1-1.5v-1-1l-.5-2.5-.5-2.5-.5-2-.5-2-.5-1.5-.5-1.5-.5-2-.5-2-1 1-1 1v2 2l-1 .5-1 .5-9-3-9-3-3-2.5-3-2.5-8 5-8 5-3.5 10-3.5 10-3 9.5-3 9.5-3.5 9.5-3.5 9.5-1 12.5-1 12.5-3.5 9.5-3.5 9.5-4.5 7-4.5 7-5.5 7.5-5.5 7.5-2.5 9-2.5 9-3.5 9.5-3.5 9.5-4 9.5-4 9.5-3.5 9.5-3.5 9.5-3.5 8-3.5 8-4 9-4 9-4 7.5-4 7.5-4.5 8.5-4.5 8.5-5.5 8-5.5 8-5.5 7.5-5.5 7.5-5 6.5-5 6.5-5 8-5 8-5.5 8-5.5 8-3 10.5-3 10.5v13 13l.5 13 .5 13 .5 12.5.5 12.5 1 10.5 1 10.5 1.5 11.5 1.5 11.5 2 9.5 2 9.5 2.5 10.5 2.5 10.5 4 9.5 4 9.5 5 8 5 8 5 6.5 5 6.5 5 8 5 8 5 6.5 5 6.5 5.5 7.5 5.5 7.5 7 6.5 7 6.5 5.5 7.5 5.5 7.5 2 8.5 2 8.5 2 .5 2 .5" style="fill:#939095;stroke:#939095"/><g style="fill:#4a434a;stroke:#4a434a"><path d="m280 685l3 1 1-1 1-1 .5-2 .5-2v-.5-.5l-1-.5-1-.5-.5-12-.5-12-1-12-1-12v-18-18-13.5-13.5-13.5-13.5-11-11l.5-11 .5-11 .5-8.5.5-8.5.5-12 .5-12-.5-13-.5-13 .5-6 .5-6h-1-1v-11.5-11.5-12-12-12-12l-.5-11-.5-11-1-9-1-9-2-7-2-7-.5 13-.5 13 .5-11 .5-11 1 8 1 8 1.5 10 1.5 10 .5 11.5.5 11.5v12 12 11.5 11.5 12 12l-.5 11.5-.5 11.5v11.5 11.5l-.5 11.5-.5 11.5-.5 10.5-.5 10.5v11.5 11.5 12 12l-.5 10-.5 10-.5 10-.5 10 .5 10 .5 10-1.5 20-1.5 20v2 2 .5.5l1.5-.5 1.5-.5.5 1.5.5 1.5-.5 2-.5 2 .5 1.5.5 1.5.5 1.5.5 1.5-1 .5-1 .5-1.5-.5-1.5-.5v1.5 1.5l2 1 2 1h1 1"/><path d="m447 685l3 1 1.5-.5 1.5-.5 1.5-.5 1.5-.5 1-.5 1-.5-2 .5-2 .5-1.5-.5-1.5-.5-1.5-8.5-1.5-8.5.5-9 .5-9v-11-11l-.5-12-.5-12 1-10 1-10-1-9.5-1-9.5v-13-13-9.5-9.5-12-12-12.5-12.5l.5-11.5.5-11.5v-11.5-11.5-12-12l.5-12 .5-12-.5-10.5-.5-10.5.5-11 .5-11v-12-12l3-10.5 3-10.5.5 1 .5 1 .5-1 .5-1-.5-1-.5-1-1-1.5-1-1.5-1-1-1-1-1-1.5-1-1.5-.5-1.5-.5-1.5v-2-2l-.5-1.5-.5-1.5h-.5-.5l-1.5 8-1.5 8 1.5 9 1.5 9v13 13l-.5 11-.5 11v11.5 11.5l-.5 9-.5 9v10.5 10.5 11.5 11.5 10.5 10.5 9.5 9.5l-.5 11-.5 11 .5 10 .5 10-.5 11-.5 11 .5 12 .5 12v10.5 10.5l-.5 9-.5 9 .5 12 .5 12v11.5 11.5l-1 18.5-1 18.5h1.5 1.5"/></g><path d="m440 684l4 1 1-18.5 1-18.5v-11.5-11.5l-.5-12-.5-12 .5-9 .5-9v-10.5-10.5l-.5-12-.5-12 .5-11 .5-11-.5-10-.5-10 .5-11 .5-11v-9.5-9.5-10.5-10.5-11.5-11.5-10.5-10.5l.5-9 .5-9v-11.5-11.5l.5-11 .5-11v-13-13l-1.5-9-1.5-9 1.5-8 1.5-8-.5-.5-.5-.5-.5-1.5-.5-1.5-1.5 11-1.5 11 .5 11 .5 11 .5 12.5.5 12.5v11.5 11.5l-.5 11.5-.5 11.5v10.5 10.5l-.5 11.5-.5 11.5v12 12l-.5 11-.5 11v13 13l-.5 11-.5 11v12 12l-.5 18.5-.5 18.5v-13-13-11.5-11.5l-.5-15-.5-15v24 24 11.5 11.5l.5 12.5.5 12.5-1 8.5-1 8.5-.5-3.5-.5-3.5v8.5 8.5l-.5 5.5-.5 5.5-1 8.5-1 8.5.5 8.5.5 8.5 2.5 9 2.5 9" style="fill:#362d30;stroke:#362d30"/><g style="fill:#5e5b65;stroke:#5e5b65"><path d="m451 683l3 1 2-.5 2-.5h1 1 1 1l.5-.5.5-.5.5-.5.5-.5 1.5-.5 1.5-.5-1-.5-1-.5h1 1l.5-1.5.5-1.5h1.5 1.5l.5-.5.5-.5.5-.5.5-.5 1.5-.5 1.5-.5v-.5-.5l-6-4.5-6-4.5-4-8-4-8-.5-4-.5-4v-8-8l.5-9 .5-9-.5-3-.5-3 1.5-6 1.5-6 .5-7 .5-7-.5-6-.5-6 .5-9 .5-9 .5-11 .5-11 .5-10 .5-10v-11.5-11.5l.5-12 .5-12 .5-22 .5-22-2 6-2 6 .5 4.5.5 4.5.5 6 .5 6-2 4.5-2 4.5 1.5 5 1.5 5-4.5 3-4.5 3v-11-11l-.5-10-.5-10 .5-12.5.5-12.5v-11.5-11.5l.5-11.5.5-11.5v-10.5-10.5l-.5-11.5-.5-11.5 2.5-12 2.5-12-3 10.5-3 10.5v12 12l-.5 11-.5 11 .5 10.5.5 10.5-.5 12-.5 12v12 12 11.5 11.5l-.5 11.5-.5 11.5v12.5 12.5 12 12 9.5 9.5 13 13l1 9.5 1 9.5-1 10-1 10 .5 12 .5 12v11 11l-.5 9-.5 9 1.5 8.5 1.5 8.5"/><path d="m273 682l1 1v-1.5-1.5l1.5.5 1.5.5 1-.5 1-.5-.5-1.5-.5-1.5-.5-1.5-.5-1.5.5-2 .5-2-.5-1.5-.5-1.5-1.5.5-1.5.5v2 2l-.5 2-.5 2v1 1 2 2"/></g><path d="m284 678l2 1-1-13-1-13-1-12-1-12-.5-13-.5-13v-4.5-4.5 18 18l1 12 1 12 .5 12 .5 12" style="fill:#362d30;stroke:#362d30"/><path d="m476 672v1l3-16.5 3-16.5v-11-11l-.5-1-.5-1-.5.5-.5.5h-1-1l1.5-10 1.5-10v-12.5-12.5l-.5-11-.5-11-.5-11-.5-11v-14-14l-.5-11.5-.5-11.5v-13-13l-.5-11-.5-11-.5-15.5-.5-15.5-.5-1-.5-1v-1.5-1.5-2-2-1-1-1-1-1-1-1.5-1.5l.5-.5.5-.5-.5-.5-.5-.5v-1-1-1.5-1.5-1-1-1-1-1-1-1.5-1.5-2-2-1-1l-.5-1.5-.5-1.5v1.5 1.5 2 2 1 1 1.5 1.5 2 2 3.5 3.5 1.5 1.5l-.5 1.5-.5 1.5.5 1.5.5 1.5v2 2 2.5 2.5 2 2 2.5 2.5 2 2 2.5 2.5l.5 1.5.5 1.5v3 3l.5 12 .5 12 .5 11.5.5 11.5v12.5 12.5l.5 11.5.5 11.5v12.5 12.5 11 11l-2 15.5-2 15.5-1.5-10.5-1.5-10.5-.5-11.5-.5-11.5-.5-12-.5-12v-12-12-12.5-12.5-11-11-12.5-12.5-10.5-10.5l.5-11 .5-11v-12.5-12.5-11.5-11.5l.5-10 .5-10 1.5 16 1.5 16-.5-11-.5-11 2-4.5 2-4.5 1 12 1 12v10.5 10.5l.5 12.5.5 12.5 1 12.5 1 12.5.5 12.5.5 12.5.5 11 .5 11 1 11 1 11 1 9.5 1 9.5 1 11 1 11 1.5 12 1.5 12 1 11 1 11 2 6.5 2 6.5 2-10 2-10-.5-10-.5-10-.5-10.5-.5-10.5-2-11.5-2-11.5-1.5-10.5-1.5-10.5-.5-10-.5-10-1.5-11.5-1.5-11.5-1-12.5-1-12.5-1-12-1-12-1-10.5-1-10.5-1-12-1-12 2-9 2-9-.5-1-.5-1-.5-.5-.5-.5-1-.5-1-.5-.5-1.5-.5-1.5-.5-.5-.5-.5-1-.5-1-.5-1-1-1-1-.5-.5-.5-.5-.5-1-.5-1-1-1-1-1-1-1.5-1-1.5-1-1-1-1 .5-2 .5-2-1-1-1-1-.5 1-.5 1 .5 1.5.5 1.5v1 1 1.5 1.5 2.5 2.5 1.5 1.5 1 1 1 1 1 1 1.5 1.5 1 1 1 1 1 1l-.5 1-.5 1v1 1 1 1 1 1 1.5 1.5 1 1 1 1l-.5 1-.5 1v2 2 2 2 2 2 2.5 2.5 2 2 2.5 2.5 2 2l-.5 2-.5 2v2 2 2.5 2.5 2 2 2 2l-.5 2-.5 2 .5 1.5.5 1.5-.5 1.5-.5 1.5-.5 22-.5 22-.5 12-.5 12v11.5 11.5l-.5 10-.5 10-.5 11-.5 11-.5 9-.5 9 .5 6 .5 6-.5 7-.5 7-1.5 6-1.5 6 .5 3 .5 3-.5 9-.5 9v8 8l.5 4 .5 4 4 8 4 8 6 4.5 6 4.5" style="fill:#4a434a;stroke:#4a434a"/><path d="m274 662v1l1.5-20 1.5-20-.5-10-.5-10 .5-10 .5-10 .5-10 .5-10v-12-12-11.5-11.5l.5-10.5.5-10.5.5-11.5.5-11.5v-11.5-11.5l.5-11.5.5-11.5v-12-12-11.5-11.5-12-12l-.5-11.5-.5-11.5-1.5-10-1.5-10-1-8-1-8-.5 11-.5 11v1.5 1.5 2 2 2 2 2 2 1 1 2 2l1.5-5.5 1.5-5.5 1.5 10.5 1.5 10.5v12 12 11.5 11.5l-.5 11.5-.5 11.5v11 11l-.5 10-.5 10v12 12l-1-9-1-9v-9.5-9.5l-.5-10.5-.5-10.5-1-3-1-3-.5 10-.5 10v11 11 12 12l-.5 11-.5 11v11 11l.5 11 .5 11-.5 10.5-.5 10.5.5 10.5.5 10.5.5 9 .5 9v8 8l-1 14.5-1 14.5-3.5-8-3.5-8-1-9.5-1-9.5.5-9 .5-9-.5-8-.5-8-.5-9-.5-9-.5-7-.5-7v-10.5-10.5l-.5-7-.5-7 1-6.5 1-6.5v-6.5-6.5l-1.5-8-1.5-8 2-7.5 2-7.5-1-8.5-1-8.5v-8.5-8.5-8.5-8.5l.5-10 .5-10 1-9.5 1-9.5 1-8.5 1-8.5 2-10.5 2-10.5 1.5 6 1.5 6 1-4.5 1-4.5-1.5-9.5-1.5-9.5-1-7-1-7-1 10.5-1 10.5-3 8-3 8-1.5 9.5-1.5 9.5-1 9.5-1 9.5.5 9.5.5 9.5v10 10 11.5 11.5l-.5 10.5-.5 10.5v12 12l-.5 10-.5 10v11 11 11 11l-.5 9-.5 9-.5 10.5-.5 10.5.5 10.5.5 10.5-3 7.5-3 7.5 8.5 13 8.5 13 .5 1 .5 1 1.5 1 1.5 1 1 1 1 1 1.5 1 1.5 1" style="fill:#5e5b65;stroke:#5e5b65"/><path d="m463 659l14-10v-8.5-8.5l-4.5 8.5-4.5 8.5-2.5 5-2.5 5" style="fill:#362d30;stroke:#362d30"/><path d="m271 658l2-29v-8-8l-.5-9-.5-9-.5-10.5-.5-10.5.5-10.5.5-10.5-.5-11-.5-11v-11-11l.5-11 .5-11v-12-12-11-11l.5-10 .5-10 1 3 1 3 .5 10.5.5 10.5v9.5 9.5l1 9 1 9v-12-12l.5-10 .5-10v-11-11l.5-11.5.5-11.5v-11.5-11.5-12-12l-1.5-10.5-1.5-10.5-1.5 5.5-1.5 5.5v.5.5l-1 4.5-1 4.5-1.5-6-1.5-6-2 10.5-2 10.5-1 8.5-1 8.5-1 9.5-1 9.5-.5 10-.5 10v8.5 8.5 8.5 8.5l1 8.5 1 8.5-2 7.5-2 7.5 1.5 8 1.5 8v6.5 6.5l-1 6.5-1 6.5.5 7 .5 7v10.5 10.5l.5 7 .5 7 .5 9 .5 9 .5 8 .5 8-.5 9-.5 9 1 9.5 1 9.5 3.5 8 3.5 8" style="fill:#727079;stroke:#727079"/><path d="m263 653l2 1-8.5-13-8.5-13 3-7.5 3-7.5-.5-10.5-.5-10.5.5-10.5.5-10.5.5-9 .5-9v-11-11-11-11l.5-10 .5-10v-12-12l.5-10.5.5-10.5v-11.5-11.5-10-10l-.5-9.5-.5-9.5 1-9.5 1-9.5 1.5-9.5 1.5-9.5 3-8 3-8 1-10.5 1-10.5 1 7 1 7 1.5 9.5 1.5 9.5v-.5-.5-2-2-1-1-2-2-2-2-2-2-1.5-1.5l-1-8.5-1-8.5-3.5 7-3.5 7-4-1-4-1-6 6.5-6 6.5-5 6.5-5 6.5-8 11-8 11-1.5 1-1.5 1-1.5 12-1.5 12-.5-6-.5-6-5 5-5 5-3 7-3 7-.5-.5-.5-.5-.5-1.5-.5-1.5-1.5 1-1.5 1-1.5.5-1.5.5.5 1.5.5 1.5.5 2 .5 2-1.5.5-1.5.5h-2-2l-.5.5-.5.5 7 4.5 7 4.5 3.5-8.5 3.5-8.5 3-7.5 3-7.5v11 11l2.5-5 2.5-5 3.5-4.5 3.5-4.5.5 10 .5 10-.5 11.5-.5 11.5v11.5 11.5l-1 12-1 12v11.5 11.5 12 12l.5 11 .5 11 1-4 1-4 1-11.5 1-11.5.5-12.5.5-12.5v-10.5-10.5l.5-11.5.5-11.5v-10.5-10.5l.5-10.5.5-10.5 1.5-12 1.5-12v-11-11l6.5-3 6.5-3 3-1 3-1 1.5 9 1.5 9-3 9-3 9v8.5 8.5l-1 11-1 11-.5 11-.5 11v10 10 12.5 12.5 12 12l-1 10.5-1 10.5-.5 12.5-.5 12.5-1 11.5-1 11.5-.5 20-.5 20 1 2 1 2 .5-11.5.5-11.5.5-12 .5-12 .5-10.5.5-10.5.5-11 .5-11 1-10.5 1-10.5.5-10 .5-10-.5-12-.5-12 .5-11 .5-11 .5-10 .5-10 2-2.5 2-2.5 1.5 10 1.5 10v9.5 9.5 12.5 12.5l-.5 9-.5 9v9.5 9.5 11.5 11.5l-.5 11-.5 11-.5 11-.5 11-5.5 18-5.5 18 1 1.5 1 1.5 1 1 1 1 1 1.5 1 1.5 1 1 1 1 1.5.5 1.5.5 1 1.5 1 1.5 1 1 1 1 1.5 1 1.5 1 1 1 1 1 1.5 1 1.5 1" style="fill:#4a434a;stroke:#4a434a"/><path d="m466 640l10-14h-4.5-4.5l-.5 7-.5 7" style="fill:#5e5b65;stroke:#5e5b65"/><path d="m240 630v1l5.5-18 5.5-18 .5-11 .5-11 .5-11 .5-11v-11.5-11.5-9.5-9.5l.5-9 .5-9v-12.5-12.5-9.5-9.5l-1.5-10-1.5-10-2 2.5-2 2.5-.5 10-.5 10-.5 11-.5 11 .5 12 .5 12-.5 10-.5 10-1 10.5-1 10.5-.5 11-.5 11-.5 10.5-.5 10.5-.5 12-.5 12-.5 11.5-.5 11.5.5.5.5.5" style="fill:#362d30;stroke:#362d30"/><path d="m237 624v1l.5-20 .5-20 1-11.5 1-11.5.5-12.5.5-12.5 1-10.5 1-10.5v-12-12-12.5-12.5-10-10l.5-11 .5-11 1-11 1-11v-8.5-8.5l3-9 3-9-1.5-9-1.5-9-3 1-3 1-6.5 3-6.5 3v11 11l-1.5 12-1.5 12-.5 10.5-.5 10.5v10.5 10.5l-.5 11.5-.5 11.5v10.5 10.5l-.5 12.5-.5 12.5-1 11.5-1 11.5-1 4-1 4-.5-11-.5-11v-12-12-11.5-11.5l1-12 1-12v-11.5-11.5l.5-11.5.5-11.5-.5-10-.5-10-3.5 4.5-3.5 4.5-2.5 5-2.5 5v-11-11l-3 7.5-3 7.5-3.5 8.5-3.5 8.5-7-4.5-7-4.5h-1-1l-1 10-1 10 .5 10 .5 10 .5 11.5.5 11.5 1 10.5 1 10.5 1 11 1 11 1.5 12.5 1.5 12.5 2 8 2 8 3.5 7 3.5 7-2.5-10-2.5-10-2-10.5-2-10.5-1.5-10-1.5-10v-8.5-8.5-9.5-9.5l-1-7.5-1-7.5-.5-9-.5-9 3-4.5 3-4.5-3.5-6.5-3.5-6.5 3 3.5 3 3.5 6-.5 6-.5 4-3.5 4-3.5 3-6.5 3-6.5 1.5-1 1.5-1 1.5 9 1.5 9v10.5 10.5l-1 10-1 10-.5 9-.5 9v7.5 7.5l-1.5 5-1.5 5v6.5 6.5l1.5 9 1.5 9-2 8.5-2 8.5v17.5 17.5l2.5-.5 2.5-.5-.5 1.5-.5 1.5 1 1.5 1 1.5v2 2l-.5.5-.5.5-1.5-1-1.5-1-.5-1.5-.5-1.5-1-1.5-1-1.5.5-1 .5-1-1-.5-1-.5-1-.5-1-.5-1.5-.5-1.5-.5 5 7.5 5 7.5 5 5.5 5 5.5 4.5 6.5 4.5 6.5 1 1.5 1 1.5" style="fill:#5e5b65;stroke:#5e5b65"/><path d="m424 619h2l.5-1.5.5-1.5v-2.5-2.5l-.5-1.5-.5-1.5-1 .5-1 .5-.5 1.5-.5 1.5v2.5 2.5l.5 1 .5 1" style="fill:#ded0cf;stroke:#ded0cf"/><path d="m478 617h2l.5-.5.5-.5.5 1 .5 1 1-1 1-1 1-1 1-1 .5-1 .5-1 .5-.5.5-.5 1-1 1-1 .5-1 .5-1 1-1 1-1-.5-.5-.5-.5.5-1.5.5-1.5 1.5-1 1.5-1 .5-1.5.5-1.5 1-1.5 1-1.5.5-1.5.5-1.5 1-1.5 1-1.5.5-1.5.5-1.5 1.5-1.5 1.5-1.5 6-13.5 6-13.5 3.5-9.5 3.5-9.5 2.5-9 2.5-9 2.5-10.5 2.5-10.5 2-9.5 2-9.5 1.5-11.5 1.5-11.5 1.5-11.5 1.5-11.5-.5-.5-.5-.5-6.5-5.5-6.5-5.5-2-10.5-2-10.5v-.5-.5-.5-.5l-1-1-1-1-1 9-1 9 6.5 6 6.5 6 .5 7.5.5 7.5-.5 3-.5 3-2 7.5-2 7.5-.5 8-.5 8 1.5-1 1.5-1 .5 5 .5 5-1.5 10-1.5 10-2.5 10-2.5 10-3 9-3 9-3.5 7.5-3.5 7.5 1.5-10.5 1.5-10.5-3-7.5-3-7.5-3.5-4-3.5-4-1.5-8-1.5-8-2-7.5-2-7.5-1-8.5-1-8.5-1-8.5-1-8.5v-8.5-8.5l-1.5-7-1.5-7v-9.5-9.5l-1.5-9-1.5-9-1-11.5-1-11.5.5-14.5.5-14.5v-1-1l-2 9-2 9 1 12 1 12 1 10.5 1 10.5 1 12 1 12 1 12.5 1 12.5 1.5 11.5 1.5 11.5.5 10 .5 10 1.5 10.5 1.5 10.5 2 11.5 2 11.5.5 10.5.5 10.5.5 10 .5 10-2 10-2 10-2-6.5-2-6.5-1-11-1-11-1.5-12-1.5-12-1-11-1-11-1-9.5-1-9.5-1-11-1-11-.5-11-.5-11-.5-12.5-.5-12.5-1-12.5-1-12.5-.5-12.5-.5-12.5v-10.5-10.5l-1-12-1-12-2 4.5-2 4.5.5 11 .5 11v1 1l.5 1.5.5 1.5v1 1 2 2 1.5 1.5 1 1 1 1 1 1 1.5 1.5 1 1l.5.5.5.5-.5.5-.5.5v1.5 1.5 1 1 1 1 1 1 2 2 1.5 1.5l.5 1 .5 1 1-5 1-5 1 10.5 1 10.5.5 11.5.5 11.5.5 9 .5 9 .5 12 .5 12 .5 10 .5 10 .5 11 .5 11 1.5 10 1.5 10 1 10.5 1 10.5.5 10 .5 10-3.5 16.5-3.5 16.5-.5-11.5-.5-11.5-.5-10-.5-10-.5-11-.5-11-.5-10-.5-10-.5-12.5-.5-12.5v14 14l.5 11 .5 11 .5 11 .5 11v12.5 12.5l-1.5 10-1.5 10" style="fill:#5e5b65;stroke:#5e5b65"/><path d="m484 610l7-33-.5-10-.5-10-1-10.5-1-10.5-1.5-10-1.5-10-.5-11-.5-11-.5-10-.5-10-.5-12-.5-12-.5-9-.5-9-.5-11.5-.5-11.5-1-10.5-1-10.5-1 5-1 5 .5 15.5.5 15.5.5 11 .5 11v13 13l.5 11.5.5 11.5.5 12.5.5 12.5.5 10 .5 10 .5 11 .5 11 .5 10 .5 10 .5 11.5.5 11.5" style="fill:#727079;stroke:#727079"/><path d="m492 604l1 1 1-2 1-2 1-.5 1-.5v-1-1l1-1 1-1 .5-1 .5-1 .5-.5.5-.5.5-1.5.5-1.5.5-1 .5-1 .5-.5.5-.5.5-1.5.5-1.5.5-1.5.5-1.5-1.5 1.5-1.5 1.5-.5 1.5-.5 1.5-1 1.5-1 1.5-.5 1.5-.5 1.5-1 1.5-1 1.5-.5 1.5-.5 1.5-1.5 1-1.5 1-.5 1.5-.5 1.5" style="fill:#4a434a;stroke:#4a434a"/><path d="m415 598l8-23-.5-10-.5-10 2-10 2-10 1-11 1-11-.5 1-.5 1v1 1l-.5.5-.5.5v1.5 1.5 1 1 1 1 1 1l-.5 1.5-.5 1.5v1.5 1.5l-.5 1.5-.5 1.5-.5 2-.5 2-.5 1.5-.5 1.5h-1-1v-11-11l.5-14 .5-14v-.5-.5-.5-.5l.5-11.5.5-11.5v-10.5-10.5l-.5-11-.5-11-1-10.5-1-10.5-1.5-7.5-1.5-7.5-1.5 13-1.5 13-.5 1.5-.5 1.5-1 1-1 1-1 1.5-1 1.5-.5 1-.5 1 5.5-3.5 5.5-3.5v9.5 9.5 10 10 10 10 10.5 10.5l-.5 11.5-.5 11.5-1 9-1 9-2-10.5-2-10.5-1.5-11-1.5-11-1-11-1-11-1-11.5-1-11.5 1.5-13 1.5-13-1 1.5-1 1.5h-1.5-1.5l-.5 1.5-.5 1.5.5 12 .5 12 1 14 1 14 1 11 1 11 1.5 11.5 1.5 11.5v9.5 9.5l-2.5-10.5-2.5-10.5-2-18-2-18-.5-2-.5-2v-1-1-1.5-1.5l-.5-1.5-.5-1.5v-1-1-1-1-1-1-2.5-2.5l-.5-1-.5-1v-2-2-2-2-2.5-2.5l-.5-2-.5-2 .5 18 .5 18 1 11 1 11 1.5 10 1.5 10 1.5 10.5 1.5 10.5 1 10.5 1 10.5 3.5 7.5 3.5 7.5.5 7.5.5 7.5" style="fill:#ded0cf;stroke:#ded0cf"/><path d="m474 596l4-31v-11-11-12.5-12.5l-.5-11.5-.5-11.5v-12.5-12.5l-.5-11.5-.5-11.5-.5-12-.5-12v13 13 10.5 10.5 13 13l-1 10-1 10-.5-12-.5-12-.5-12-.5-12v-12-12-12.5-12.5-12-12-12.5-12.5l1.5 4 1.5 4v-3.5-3.5-2-2-1.5-1.5-1-1-2-2-1.5-1.5-1-1l-1.5-16-1.5-16-.5 10-.5 10v11.5 11.5 12.5 12.5l-.5 11-.5 11v10.5 10.5 12.5 12.5 11 11 12.5 12.5 12 12l.5 12 .5 12 .5 11.5.5 11.5 1.5 10.5 1.5 10.5" style="fill:#362d30;stroke:#362d30"/><path d="m218 595l1-1v-2-2l-1-1.5-1-1.5.5-1.5.5-1.5-2.5.5-2.5.5-.5 1-.5 1 1 1.5 1 1.5.5 1.5.5 1.5 1.5 1 1.5 1" style="fill:#727079;stroke:#727079"/><path d="m373 586l1-23-1 9.5-1 9.5.5 2 .5 2" style="fill:#b1a0a3;stroke:#b1a0a3"/><g style="fill:#727079;stroke:#727079"><path d="m227 585l1-3 .5-5 .5-5 2-3 2-3 3-7.5 3-7.5v-7-7l.5-8 .5-8 .5-4.5.5-4.5-2.5-5-2.5-5 2.5-3.5 2.5-3.5-1.5-6-1.5-6 1-7 1-7 1-7.5 1-7.5v-10-10l-1-11.5-1-11.5 1-6 1-6v-3.5-3.5l-3-3-3-3-2 1.5-2 1.5v8 8l-1 10.5-1 10.5-.5 10.5-.5 10.5.5 7 .5 7-1 7-1 7-1 9.5-1 9.5v10 10l-1 10.5-1 10.5v11 11 8.5 8.5l1.5 5.5 1.5 5.5"/><path d="m211 584l2 1v-17.5-17.5l2-8.5 2-8.5-1.5-9-1.5-9v-6.5-6.5l1.5-5 1.5-5v-7.5-7.5l.5-9 .5-9 1-10 1-10v-10.5-10.5l-1.5-9-1.5-9-1.5 1-1.5 1-3 6.5-3 6.5-4 3.5-4 3.5-6 .5-6 .5-3-3.5-3-3.5 3.5 6.5 3.5 6.5-3 4.5-3 4.5.5 9 .5 9 1 7.5 1 7.5v9.5 9.5 8.5 8.5l1.5 10 1.5 10 2 10.5 2 10.5 2.5 10 2.5 10 1.5 2 1.5 2v1 1l.5 1.5.5 1.5 1 1.5 1 1.5 1 1 1 1 1.5.5 1.5.5 1 .5 1 .5"/></g><g style="fill:#ded0cf;stroke:#ded0cf"><path d="m431 579l2-16-1 7.5-1 7.5v.5.5"/><path d="m436 578v1l.5-1 .5-1v-2-2-2.5-2.5-2-2-.5-.5-11-11-13.5-13.5l-.5-2-.5-2v-2.5-2.5 15.5 15.5l-1 9.5-1 9.5 1 11.5 1 11.5"/></g><path d="m485 578l1-19-1-6.5-1-6.5v11 11l.5 5 .5 5" style="fill:#939095;stroke:#939095"/><path d="m440 577l1-37v-12-12l.5-11 .5-11v-13-13l.5-11 .5-11v-12-12l.5-11.5.5-11.5v-10.5-10.5l.5-11.5.5-11.5v-11.5-11.5l-.5-12.5-.5-12.5-.5-11-.5-11 1.5-11 1.5-11-.5-1-.5-1-.5-1-.5-1-.5 1-.5 1-1 1.5-1 1.5.5 1.5.5 1.5h-1.5-1.5-1-1l-2 .5-2 .5h-2-2l-1.5-.5-1.5-.5-.5-1-.5-1v-1-1l-.5-1-.5-1-.5-.5-.5-.5v-1-1h1 1l1-1.5 1-1.5-1.5.5-1.5.5h-1.5-1.5l-.5-.5-.5-.5h-1-1l-1-.5-1-.5-.5.5-.5.5h-1-1-2-2l-1 .5-1 .5 1.5 1 1.5 1 1 .5 1 .5 1.5 1 1.5 1 1.5.5 1.5.5 1.5 1 1.5 1 4 6 4 6 1.5 5 1.5 5 3-8 3-8 1 11.5 1 11.5v12 12 12 12 11.5 11.5l-.5 11.5-.5 11.5v12 12 11.5 11.5 23 23 2 2 2.5 2.5 2 2 2.5 2.5l.5 15 .5 15v11.5 11.5 13 13" style="fill:#291c24;stroke:#291c24"/><path d="m203 570l4-16 1.5-3 1.5-3 .5-11.5.5-11.5.5-10 .5-10 .5-9.5.5-9.5.5-11 .5-11 .5-10.5.5-10.5.5-12 .5-12-1.5-.5-1.5-.5-1 9.5-1 9.5-1.5 3.5-1.5 3.5v-8.5-8.5l-3.5-1.5-3.5-1.5-1 11.5-1 11.5-1.5 10.5-1.5 10.5-2.5 8-2.5 8 1 10 1 10 1 9.5 1 9.5v10 10l2 10.5 2 10.5 2 3 2 3" style="fill:#939095;stroke:#939095"/><path d="m437 563v1l.5-12.5.5-12.5-.5-12.5-.5-12.5v13.5 13.5 11 11" style="fill:#b1a0a3;stroke:#b1a0a3"/><path d="m514 557l7-15 3-9 3-9 2.5-10 2.5-10 1.5-10 1.5-10-.5-5-.5-5-1.5 1-1.5 1 .5-8 .5-8 2-7.5 2-7.5.5-3 .5-3-.5-7.5-.5-7.5-6.5-6-6.5-6 1-9 1-9-.5-.5-.5-.5-4.5-8-4.5-8-3.5-8-3.5-8-5-7.5-5-7.5-1-.5-1-.5v-1-1l-1-1-1-1 .5 9.5.5 9.5 1 7.5 1 7.5 4 8.5 4 8.5 1 7.5 1 7.5 3 6.5 3 6.5-1 15-1 15-4.5-6.5-4.5-6.5-1-7-1-7-2.5-8-2.5-8-1-9-1-9-1.5-9-1.5-9-1-19.5-1-19.5-1-2-1-2-.5 14.5-.5 14.5 1 11.5 1 11.5 1.5 9 1.5 9v9.5 9.5l1.5 7 1.5 7v8.5 8.5l1 8.5 1 8.5 1 8.5 1 8.5 2 7.5 2 7.5 1.5 8 1.5 8 3.5 4 3.5 4 3 7.5 3 7.5-1.5 10.5-1.5 10.5" style="fill:#727079;stroke:#727079"/><path d="m264 550l6-14-1-8.5-1-8.5 1-9 1-9 .5-9 .5-9-.5-10.5-.5-10.5v-8.5-8.5l.5-12.5.5-12.5v-12.5-12.5-10.5-10.5l-1 13-1 13-1.5 14-1.5 14v-11.5-11.5l.5-18.5.5-18.5-1 9.5-1 9.5-.5 11-.5 11v12 12 12.5 12.5 11 11l-.5 10-.5 10 1 9 1 9-.5 8-.5 8v8 8" style="fill:#939095;stroke:#939095"/><path d="m409 547v-19l-1.5-11.5-1.5-11.5-1-11-1-11v2.5 2.5 2 2 2.5 2.5l.5 1.5.5 1.5v2.5 2.5h-1-1l-.5-1-.5-1v-1-1-1-1-1-1l-.5-1-.5-1-.5-2.5-.5-2.5 2 18 2 18 2.5 10.5 2.5 10.5" style="fill:#cebec1;stroke:#cebec1"/><path d="m372 546l2-22-1.5-2-1.5-2 .5 11.5.5 11.5v1.5 1.5" style="fill:#b1a0a3;stroke:#b1a0a3"/><path d="m420 543h2l.5-1.5.5-1.5.5-2 .5-2 .5-1.5.5-1.5v-1.5-1.5l-.5 2-.5 2h-1-1l-.5-2.5-.5-2.5v-2-2-2.5-2.5-2-2-2.5-2.5-2-2-2.5-2.5-2-2-2.5-2.5l-.5 14-.5 14v11 11" style="fill:#cebec1;stroke:#cebec1"/><path d="m248 541l3-19-1.5 7-1.5 7v2.5 2.5" style="fill:#291c24;stroke:#291c24"/><path d="m415 539l2-18 .5-11.5.5-11.5v-10.5-10.5-10-10-10-10-9.5-9.5l-5.5 3.5-5.5 3.5-1.5 13-1.5 13 1 11.5 1 11.5 1 11 1 11 1.5 11 1.5 11 2 10.5 2 10.5" style="fill:#eddee0;stroke:#eddee0"/><path d="m187 537v1l-1.5-12.5-1.5-12.5-1-11-1-11-1-10.5-1-10.5-.5-11.5-.5-11.5-.5-10-.5-10 1-10 1-10v-.5-.5l-1-1-1-1h-1-1l-1 1-1 1v2.5 2.5 2 2 2.5 2.5 2 2 2 2 2.5 2.5 2 2h.5.5v-2-2l.5-.5.5-.5v2 2 2.5 2.5 2 2l.5 2 .5 2v2 2 2.5 2.5 2 2l-.5.5-.5.5v-2-2-2-2l-.5-1-.5-1 .5 12 .5 12 1.5 10 1.5 10 1.5 11.5 1.5 11.5 2.5 8.5 2.5 8.5" style="fill:#4a434a;stroke:#4a434a"/><path d="m482 537l1-19-.5 7-.5 7v2.5 2.5" style="fill:#939095;stroke:#939095"/><path d="m422 534h2l.5-2 .5-2 .5-1.5.5-1.5v-1-1-1-1-1-1-1.5-1.5l.5-.5.5-.5v-1-1l.5-1 .5-1 .5-3 .5-3 .5-1.5.5-1.5v-2-2-1.5-1.5-2-2l.5-.5.5-.5v-1-1-1-1-1.5-1.5-1-1-1-1l.5-.5.5-.5v-1.5-1.5-2-2-2.5-2.5h-.5-.5l-.5 2-.5 2-.5 1.5-.5 1.5v2.5 2.5 2 2l-.5 1.5-.5 1.5v3 3 2 2 2 2l-.5 1.5-.5 1.5v1.5 1.5l-.5 1.5-.5 1.5v2.5 2.5l-.5 1.5-.5 1.5v1.5 1.5l-.5 1.5-.5 1.5-.5.5-.5.5-.5-2-.5-2v-2-2-2.5-2.5-2-2-2.5-2.5-2-2-3.5-3.5h-.5-.5v.5.5 2.5 2.5 2 2 2.5 2.5 2 2 2.5 2.5 2 2 2.5 2.5 2 2l.5 2.5.5 2.5" style="fill:#bfb1b0;stroke:#bfb1b0"/><path d="m423 525l1-1 .5-1.5.5-1.5v-1.5-1.5l.5-1.5.5-1.5v-2.5-2.5l.5-1.5.5-1.5v-1.5-1.5l.5-1.5.5-1.5v-2-2-2-2l-.5 1-.5 1v1 1l-.5 1-.5 1v1 1l-.5.5-.5.5v1 1 1.5 1.5l.5.5.5.5-.5.5-.5.5-.5.5-.5.5-.5-1-.5-1v-2-2-2-2-2.5-2.5-2-2l.5-2 .5-2v-2-2-3.5-3.5h-.5-.5l-.5 2.5-.5 2.5v2 2 2 2 1.5 1.5 3.5 3.5 2 2 2.5 2.5 2 2 2.5 2.5 2 2l.5 2 .5 2" style="fill:#b1a0a3;stroke:#b1a0a3"/><path d="m473 516l2-20v-13-13-10.5-10.5-13-13-3-3l-.5-1.5-.5-1.5v-2.5-2.5-2-2-2.5-2.5-2-2-2.5-2.5-2-2l-.5-1.5-.5-1.5.5-1.5.5-1.5v-1.5-1.5l-1.5-4-1.5-4v12.5 12.5 12 12 12.5 12.5 12 12l.5 12 .5 12 .5 12 .5 12" style="fill:#291c24;stroke:#291c24"/><path d="m374 515l1 1-.5-22.5-.5-22.5v-13-13-2-2h-.5-.5v24.5 24.5l.5 12.5.5 12.5" style="fill:#cebec1;stroke:#cebec1"/><path d="m424 510l1-1 .5-.5.5-.5-.5-.5-.5-.5v-1.5-1.5-1-1l.5-.5.5-.5v-1-1l.5-1 .5-1v-1-1l.5-1 .5-1v-3-3l.5-1.5.5-1.5v-2-2-2.5-2.5l.5-1.5.5-1.5.5-2 .5-2v-.5-.5-1.5-1.5-1-1-1.5-1.5l.5-1.5.5-1.5.5-2 .5-2v-2-2-2-2l.5-.5.5-.5v-1.5-1.5l.5-1.5.5-1.5.5 1 .5 1-1-6-1-6-1.5 10.5-1.5 10.5-2.5 16-2.5 16v-12-12l.5-11 .5-11 1-17.5 1-17.5-1.5 10.5-1.5 10.5-.5 10-.5 10-.5 12-.5 12v2.5 2.5 3.5 3.5 3.5 3.5 2 2l-.5 2-.5 2v2 2 2.5 2.5 2 2 2 2l.5 1 .5 1" style="fill:#939095;stroke:#939095"/><path d="m403 505h2v-2.5-2.5l-.5-1.5-.5-1.5v-2.5-2.5-2-2-2.5-2.5l-1-14-1-14-.5-12-.5-12h-.5-.5v2.5 2.5 2.5 2.5 2 2 2.5 2.5l.5 1.5.5 1.5v2.5 2.5 2 2 2 2 2.5 2.5l-.5.5-.5.5-.5-2-.5-2v-1-1-1-1-1-1-1.5-1.5-1-1l-.5-1-.5-1v2 2 1 1 1 1 2 2 2.5 2.5 1 1 1 1 1 1l.5 1.5.5 1.5v1.5 1.5 1 1l.5 2 .5 2 .5 2.5.5 2.5.5 1 .5 1v1 1 1 1 1 1l.5 1 .5 1" style="fill:#bfb1b0;stroke:#bfb1b0"/><path d="m481 504l1-23-1-6.5-1-6.5v11 11l.5 7 .5 7" style="fill:#939095;stroke:#939095"/><path d="m435 500l1 1v-2-2-1-1-1.5-1.5-1-1-1-1-1-1-2.5-2.5l-.5-.5-.5-.5v-2.5-2.5-1-1-1-1-1-1h-.5-.5l-1 2-1 2v2 2 1.5 1.5l-.5.5-.5.5v1 1 1 1 1.5 1.5 1 1 1 1l-.5.5-.5.5v2 2l.5-2 .5-2 .5-.5.5-.5v-1-1-1-1l.5-1.5.5-1.5h.5.5l.5.5.5.5v2 2 1.5 1.5 1 1 2.5 2.5" style="fill:#ded0cf;stroke:#ded0cf"/><path d="m451 497l3-17h-1.5-1.5v8.5 8.5" style="fill:#727079;stroke:#727079"/><path d="m421 491v1h.5.5v-1.5-1.5-2-2-2-2l.5-2.5.5-2.5v-.5-.5-12-12-11.5-11.5l-1-10.5-1-10.5.5-11 .5-11 1-13.5 1-13.5-.5-2-.5-2v-1-1-1-1-1-1-1-1l-.5-1.5-.5-1.5v2.5 2.5 2.5 2.5 2 2l.5 2 .5 2v2 2l-.5 1.5-.5 1.5-.5 2-.5 2-.5 1.5-.5 1.5-.5 2-.5 2h-1-1v-1.5-1.5-1-1-1-1-1-1-1-1-1.5-1.5l-.5-.5-.5-.5v-1-1-1-1l.5-.5.5-.5v-1.5-1.5l-.5-.5-.5-.5v-1-1-1-1l-.5-1-.5-1v11 11l-.5 15-.5 15-.5 2-.5 2v2.5 2.5 2.5 2.5l1.5-13 1.5-13 1.5 7.5 1.5 7.5 1 10.5 1 10.5.5 11 .5 11v10.5 10.5l-.5 11.5-.5 11.5" style="fill:#cebec1;stroke:#cebec1"/><path d="m426 480l5-32 1.5-10.5 1.5-10.5 1 6 1 6v1.5 1.5 1.5 1.5 1 1 1.5 1.5h.5.5v-.5-.5-3-3-2-2-2.5-2.5-2-2-2.5-2.5-2-2-1.5-1.5l-2 2-2 2-2 9.5-2 9.5v-11-11l1-11.5 1-11.5v-10-10l-1-11-1-11v-9.5-9.5-11-11-9-9-1.5-1.5l-.5-.5-.5-.5v-1.5-1.5-1-1l-.5-.5-.5-.5v-1-1-1.5-1.5l-.5-.5-.5-.5-.5-.5-.5-.5v-1-1l-.5-.5-.5-.5v-1.5-1.5l-.5-.5-.5-.5v-1.5-1.5l-1-2-1-2-1.5-1-1.5-1-1.5-.5-1.5-.5-1.5-1-1.5-1-1-.5-1-.5-1.5 1.5-1.5 1.5 3.5 9.5 3.5 9.5 2.5 10.5 2.5 10.5.5 2 .5 2 .5 1.5.5 1.5v1 1 1.5 1.5l.5 1.5.5 1.5v1 1 1 1l-.5.5-.5.5.5 1 .5 1-.5.5-.5.5-.5-.5-.5-.5-1.5.5-1.5.5 4.5 16 4.5 16 1.5 10 1.5 10v11.5 11.5l-1 17.5-1 17.5-.5 11-.5 11v12 12" style="fill:#727079;stroke:#727079"/><path d="m435 480l1 1v-3.5-3.5-2-2-2-2-2.5-2.5l-1-1-1-1-.5 2-.5 2-.5 2-.5 2v.5.5 2.5 2.5l1-2 1-2h.5.5v1 1 1 1 1 1 2.5 2.5" style="fill:#cebec1;stroke:#cebec1"/><path d="m438 479l1 1v-23-23-11.5-11.5-12-12l.5-11.5.5-11.5v-11.5-11.5-12-12-12-12l-1-11.5-1-11.5-3 8-3 8-1.5-5-1.5-5-4-6-4-6 1 2 1 2 1 1 1 1v2 2l.5.5.5.5v1 1l.5.5.5.5.5 1 .5 1 .5 1.5.5 1.5v1 1 1.5 1.5l.5 1.5.5 1.5v1 1l.5 1 .5 1v2 2l.5-.5.5-.5.5-1 .5-1v-2-2-2-2-1-1-1.5-1.5l.5-1.5.5-1.5v-1-1-1.5-1.5l1-1 1-1h1 1l.5 11.5.5 11.5v11.5 11.5 11.5 11.5l-.5 11-.5 11v12.5 12.5 12 12 18.5 18.5 2.5 2.5 2.5 2.5 2 2 2.5 2.5 2 2 1.5 1.5 1.5 1.5" style="fill:#362d30;stroke:#362d30"/><path d="m409 476l5-19 .5-11 .5-11-4.5-.5-4.5-.5 1.5 8 1.5 8v10 10 3 3" style="fill:#fffff7;stroke:#fffff7"/><path d="m423 475v1h.5.5v-3.5-3.5-2.5-2.5-.5-.5-12-12-10.5-10.5l-1.5-10-1.5-10 2-19 2-19-.5-1-.5-1-1 13.5-1 13.5-.5 11-.5 11 1 10.5 1 10.5v11.5 11.5 12 12" style="fill:#bfb1b0;stroke:#bfb1b0"/><path d="m400 472l1-1v-2.5-2.5-2-2-2-2-2.5-2.5l-.5-1.5-.5-1.5v-2.5-2.5-2-2-2.5-2.5-2.5-2.5l-.5-1-.5-1-.5-1-.5-1-.5-.5-.5-.5-.5.5-.5.5.5.5.5.5v1.5 1.5 1 1 1 1 1 1 1 1 1.5 1.5l.5.5.5.5v1 1 1 1 1 1 1.5 1.5 1.5 1.5l.5 1 .5 1v1 1 1.5 1.5 1 1 1 1 1 1l.5 2 .5 2" style="fill:#b1a0a3;stroke:#b1a0a3"/><path d="m451 468l9-6-1.5-5-1.5-5 2-4.5 2-4.5-.5-6-.5-6-.5-4.5-.5-4.5 2-6 2-6v-.5-.5l-2-4.5-2-4.5 2.5-8.5 2.5-8.5.5-2 .5-2v-2-2-2.5-2.5-2-2-2.5-2.5-2-2-2-2-2-2-.5-.5l-.5-1-.5-1 .5-1.5.5-1.5v-1-1-1.5-1.5-2-2-1-1-1.5-1.5l.5-1.5.5-1.5v-3.5-3.5l-2 9-2 9-2-3.5-2-3.5v8.5 8.5l-1 8.5-1 8.5-1 11.5-1 11.5-.5-11.5-.5-11.5v-10.5-10.5l.5-10.5.5-10.5 2-14.5 2-14.5 1 1 1 1 .5 1.5.5 1.5 1 1.5 1 1.5 1 1 1 1 .5 2 .5 2v2 2 1.5 1.5h.5.5v-2.5-2.5-1.5-1.5-1-1l-.5-1.5-.5-1.5.5-1 .5-1-1-2-1-2-1-1-1-1-1-1.5-1-1.5-1.5-1.5-1.5-1.5-.5 1-.5 1-.5-1-.5-1-2.5 12-2.5 12 .5 11.5.5 11.5v10.5 10.5l-.5 11.5-.5 11.5v11.5 11.5l-.5 12.5-.5 12.5.5 10 .5 10v11 11" style="fill:#727079;stroke:#727079"/><path d="m431 467v1h.5.5v-.5-.5-2.5-2.5-1.5-1.5l.5-.5.5-.5v-2-2l.5-1 .5-1v-1-1-1-1l.5.5.5.5v1.5 1.5 1 1l.5-.5.5-.5v-1.5-1.5-1.5-1.5-1-1-1.5-1.5-1.5-1.5l-.5-1-.5-1-.5 1.5-.5 1.5v1.5 1.5l-.5.5-.5.5v2 2 2 2l-.5 2-.5 2-.5 1.5-.5 1.5v1.5 1.5 1 1 1.5 1.5" style="fill:#b1a0a3;stroke:#b1a0a3"/><path d="m176 463l1-1v-2-2-2.5-2.5-2-2l-.5-2-.5-2v-2-2-2.5-2.5-2-2l-.5.5-.5.5v2 2 2.5 2.5 2.5 2.5 2 2 1 1l.5 1 .5 1v2 2 2 2" style="fill:#362d30;stroke:#362d30"/><g style="fill:#b1a0a3;stroke:#b1a0a3"><path d="m424 463v1l.5-12 .5-12 .5-10 .5-10 1.5-10.5 1.5-10.5-.5-2.5-.5-2.5.5-2 .5-2-.5-1.5-.5-1.5-.5-2-.5-2v-2-2-2.5-2.5-2-2l-.5-2-.5-2v-2-2l-.5-1-.5-1-2 19-2 19 1.5 10 1.5 10v10.5 10.5 12 12"/><path d="m371 458l1-1v-2-2-1.5-1.5-1-1-2-2-1.5-1.5-1-1-2-2-1.5-1.5-1-1-2-2-2-2-1.5-1.5-2-2-12-12l-.5-7-.5-7-.5 10.5-.5 10.5.5-21.5.5-21.5v-.5-.5-2.5-2.5-1-1-1-1-1-1-1.5-1.5-1-1-1-1-1-1-1.5-1.5-2-2-1-1-2-2l-1 .5-1 .5v1.5 1.5 1.5 1.5 1 1 1.5 1.5 2 2 2.5 2.5 2 2 2 2 1 1 1.5 1.5 2 2 2.5 2.5 2 2 2.5 2.5 2 2 2.5 2.5 2 2 2 2 2.5 2.5 2 2 1.5 1.5 3 3l.5 2 .5 2v2 2 1.5 1.5l-.5.5-.5.5v1.5 1.5l.5 2 .5 2v1.5 1.5 1 1 2 2 1.5 1.5 1 1 2 2 1.5 1.5 1 1l.5 1.5.5 1.5v2.5 2.5"/></g><path d="m511 450l2-30-3-6.5-3-6.5-1-7.5-1-7.5-4-8.5-4-8.5-1-7.5-1-7.5-.5-9.5-.5-9.5-.5-1-.5-1-1-1-1-1-.5-1.5-.5-1.5-1-1-1-1 1 19.5 1 19.5 1.5 9 1.5 9 1 9 1 9 2.5 8 2.5 8 1 7 1 7 4.5 6.5 4.5 6.5" style="fill:#939095;stroke:#939095"/><path d="m437 449v1h.5.5v-18.5-18.5-12-12-12.5-12.5l.5-11 .5-11v-11.5-11.5-11.5-11.5l-.5-11.5-.5-11.5v13.5 13.5 13.5 13.5l-.5 11.5-.5 11.5-1 12.5-1 12.5v-12-12l-.5-11-.5-11-.5-16.5-.5-16.5-.5 1-.5 1-.5.5-.5.5v-2-2l-.5-1-.5-1v-1-1l-.5-1.5-.5-1.5v-1.5-1.5-1-1l-.5-1.5-.5-1.5-.5-1-.5-1-.5-.5-.5-.5v-1-1l-.5-.5-.5-.5v-2-2l-1-1-1-1v1.5 1.5l.5.5.5.5v1.5 1.5l.5.5.5.5v1 1l.5.5.5.5.5.5.5.5v1.5 1.5 1 1l.5.5.5.5v1 1 1.5 1.5l.5.5.5.5v1.5 1.5l.5 10.5.5 10.5.5 11.5.5 11.5.5 10.5.5 10.5.5 10 .5 10 1 3 1 3 1 16 1 16v1.5 1.5 2 2 2.5 2.5 2 2 2.5 2.5 2 2 3 3" style="fill:#4a434a;stroke:#4a434a"/><path d="m429 441l4-19 2-2 2-2-1-16-1-16-1-3-1-3-.5-10-.5-10-.5-10.5-.5-10.5-.5-11.5-.5-11.5-.5-10.5-.5-10.5v9 9 11 11 9.5 9.5l1 11 1 11v10 10l-1 11.5-1 11.5v11 11" style="fill:#5e5b65;stroke:#5e5b65"/><path d="m373 440v1h.5.5v-2-2-1-1-1-1-1.5-1.5-1-1-1-1-1-1-1.5-1.5-1-1-1-1-1-1-1.5-1.5-1-1-1-1-1.5-1.5-.5-.5-.5-.5l-.5-1.5-.5-1.5v-2-2-2.5-2.5-2-2-2.5-2.5-2-2-2.5-2.5-2-2-1.5-1.5-3-3-1.5-1.5l-.5-1-.5-1h-.5-.5l-.5 21.5-.5 21.5.5-10.5.5-10.5.5 7 .5 7v12 12l.5 1 .5 1v1 1 1 1 1.5 1.5 1 1 1 1 1 1 2 2 1.5 1.5 1.5 1.5" style="fill:#ded0cf;stroke:#ded0cf"/><path d="m544 430l1 1 .5-2.5.5-2.5-.5-1-.5-1-1.5-.5-1.5-.5v-1.5-1.5l-.5-1-.5-1-1.5.5-1.5.5h-1-1l-1-.5-1-.5-1-1-1-1v-1-1l-.5-1-.5-1-.5-1.5-.5-1.5v1 1l-.5-.5-.5-.5-.5-.5-.5-.5.5-1 .5-1v-1-1h1.5 1.5l-.5-1-.5-1-1-1.5-1-1.5-.5-1-.5-1h-.5-.5l2 10.5 2 10.5 6.5 5.5 6.5 5.5" style="fill:#4a434a;stroke:#4a434a"/><path d="m266 428l3-28 1-13 1-13v-1-1l-.5-.5-.5-.5v-2-2-2-2l-.5-.5-.5-.5h-.5-.5l-.5 2.5-.5 2.5v.5.5l-.5 18.5-.5 18.5v11.5 11.5" style="fill:#b1a0a3;stroke:#b1a0a3"/><path d="m536 419h2l1.5-.5 1.5-.5 2.5-5 2.5-5 2.5-5.5 2.5-5.5-.5 2-.5 2-.5.5-.5.5-1.5-1-1.5-1-.5-.5-.5-.5-1-.5-1-.5 1-1 1-1v-1-1l-.5-1-.5-1-1-1-1-1-.5-.5-.5-.5v-1.5-1.5l-1-1-1-1-1-1.5-1-1.5-1-1-1-1-.5-2.5-.5-2.5-.5-.5-.5-.5h-1-1l-.5 1-.5 1v1 1l-.5 1-.5 1-.5 1.5-.5 1.5-.5.5-.5.5-1 1.5-1 1.5 2 1 2 1 .5 1.5.5 1.5.5 2 .5 2-1.5 1.5-1.5 1.5.5 1 .5 1 1 1.5 1 1.5.5 1 .5 1h2 2l1 1 1 1v-1.5-1.5l-3-9-3-9 4.5 3.5 4.5 3.5-1.5 12-1.5 12-1-2-1-2v-.5-.5l-1-.5-1-.5-1-1-1-1v-2-2h-1.5-1.5v1 1l-.5 1-.5 1 .5.5.5.5.5.5.5.5v-1-1l.5 1.5.5 1.5.5 1 .5 1v1 1l1 1 1 1 1 .5 1 .5" style="fill:#583a2d;stroke:#583a2d"/><path d="m282 417h2v-2-2-2.5-2.5l.5-1.5.5-1.5v-2.5-2.5-2-2l.5-2 .5-2v-1.5-1.5-.5-.5l-.5-11-.5-11 .5-10.5.5-10.5v-12.5-12.5-11-11l5-16.5 5-16.5-5 9-5 9v4 4l-.5 11-.5 11-1 12-1 12-.5-11.5-.5-11.5v-13-13l2-6.5 2-6.5 1-6 1-6 4.5-8 4.5-8 6.5-15 6.5-15 1-.5 1-.5.5.5.5.5v-.5-.5-2-2l-1 .5-1 .5-1 .5-1 .5-1 2-1 2-4 9-4 9-4.5 9-4.5 9-5 8.5-5 8.5-5.5 7.5-5.5 7.5-5.5 8-5.5 8-6.5 7-6.5 7-6.5 6.5-6.5 6.5-5 6.5-5 6.5-4 2.5-4 2.5h2 2l.5 1 .5 1-.5 1.5-.5 1.5-1 1-1 1-.5 2-.5 2 1 1 1 1 1-1.5 1-1.5 1 1 1 1-1 1-1 1 8-11 8-11 5-6.5 5-6.5 6-6.5 6-6.5 4 1 4 1 3.5-7 3.5-7 1 8.5 1 8.5.5-13 .5-13 2 7 2 7 1 9 1 9 .5 11 .5 11v12 12 12 12 11.5 11.5" style="fill:#362d30;stroke:#362d30"/><path d="m402 417h2l.5.5.5.5v-1-1l.5-.5.5-.5h1.5 1.5v-1-1l.5-.5.5-.5v-1-1l-.5-1-.5-1 .5-.5.5-.5v-1-1l-.5-.5-.5-.5.5-1 .5-1v-1-1l.5-.5.5-.5-.5-1.5-.5-1.5-.5 2-.5 2-.5 1.5-.5 1.5v1.5 1.5l-1 1.5-1 1.5-.5 1.5-.5 1.5-1.5.5-1.5.5.5 1 .5 1-.5 1-.5 1" style="fill:#755749;stroke:#755749"/><path d="m538 417l3-24-4.5-3.5-4.5-3.5 3 9 3 9 .5 1 .5 1 .5 2 .5 2-1 1-1 1-1 .5-1 .5 1 2 1 2" style="fill:#20160d;stroke:#20160d"/><path d="m394 415h1v-.5-.5l1.5-9.5 1.5-9.5.5-7 .5-7v-13-13l1-10.5 1-10.5 1-12 1-12 1.5-3 1.5-3v-9-9-.5-.5l-.5-1.5-.5-1.5-.5-2-.5-2v-2-2-2-2-1-1-2.5-2.5l-.5-1.5-.5-1.5v-1.5-1.5h-1-1l-1 1.5-1 1.5v2 2l1 1.5 1 1.5-.5 1.5-.5 1.5-.5 2-.5 2-.5 1.5-.5 1.5-.5 2-.5 2-.5 2.5-.5 2.5v1.5 1.5 2.5 2.5 2 2 2.5 2.5 2 2l.5 2 .5 2-1 1-1 1-1.5.5-1.5.5.5 14 .5 14-.5 11-.5 11 1 12 1 12v13.5 13.5" style="fill:#5e5b65;stroke:#5e5b65"/><path d="m395 414v1l1-.5 1-.5.5-.5.5-.5.5.5.5.5.5-1 .5-1 .5-.5.5-.5h1 1l.5-.5.5-.5 1-.5 1-.5 1-1.5 1-1.5v-1.5-1.5l.5-1.5.5-1.5.5-2 .5-2v-1.5-1.5-2-2-2.5-2.5-2-2-2.5-2.5-2.5-2.5-.5-.5-1.5-1.5l-.5-1.5-.5-1.5v-1-1-1-1-1-1-1.5-1.5-2-2l.5-.5.5-.5.5-1 .5-1v-2-2-1-1-1.5-1.5-2-2-1-1-1.5-1.5l.5-1.5.5-1.5 1-1 1-1h1.5 1.5l1.5-.5 1.5-.5.5.5.5.5.5-.5.5-.5-.5-1-.5-1 .5-.5.5-.5v-1-1-1-1l-.5-1.5-.5-1.5v-1.5-1.5-1-1l-.5-1.5-.5-1.5-.5-2-.5-2v3 3l.5 1.5.5 1.5v2.5 2.5 2 2l-1 .5-1 .5-1 .5-1 .5-1 1-1 1-1.5.5-1.5.5h-1-1-1.5-1.5l.5 11 .5 11 .5 12 .5 12-2.5 18.5-2.5 18.5.5-10.5.5-10.5v-12.5-12.5l1-18.5 1-18.5-.5-2.5-.5-2.5 1.5-1 1.5-1 1.5.5 1.5.5 2-.5 2-.5v-1-1l-.5-2-.5-2-.5-1.5-.5-1.5-.5-2.5-.5-2.5-.5-1-.5-1-.5-1.5-.5-1.5-.5-2-.5-2v-2-2l-1-2-1-2h-.5-.5v9 9l-1.5 3-1.5 3-1 12-1 12-1 10.5-1 10.5v13 13l-.5 7-.5 7-1.5 9.5-1.5 9.5" style="fill:#4a434a;stroke:#4a434a"/><path d="m536 412v1l1-.5 1-.5 1-1 1-1-.5-2-.5-2-.5-1-.5-1v1.5 1.5l-1-1-1-1h-2-2v2 2l1 1 1 1 1 .5 1 .5" style="fill:#755749;stroke:#755749"/><path d="m463 409v1l.5-1.5.5-1.5-.5-1.5-.5-1.5.5-2 .5-2v-2-2-2-2-2.5-2.5-2-2l-2.5 8.5-2.5 8.5 2 4.5 2 4.5" style="fill:#5e5b65;stroke:#5e5b65"/><path d="m403 407l5-37-.5-12-.5-12-.5-11-.5-11-1 18.5-1 18.5v12.5 12.5l-.5 10.5-.5 10.5" style="fill:#362d30;stroke:#362d30"/><path d="m180 406v1h1 1l.5-.5.5-.5v-.5-.5l.5-2 .5-2v-1-1l-.5-.5-.5-.5-.5-1-.5-1-.5-.5-.5-.5.5-8.5.5-8.5 6-6 6-6-3 10.5-3 10.5.5 1 .5 1 .5-.5.5-.5h1 1v1 1l-.5 1-.5 1-.5.5-.5.5-.5.5-.5.5-.5-.5-.5-.5-.5 1-.5 1 5-7 5-7 5-7 5-7 3.5-9.5 3.5-9.5-1 .5-1 .5-1 .5-1 .5-3 6-3 6-6 1-6 1-7 7.5-7 7.5v-1-1l-.5-1-.5-1-1 1.5-1 1.5-.5 1.5-.5 1.5v2.5 2.5l.5 1.5.5 1.5v1 1 2.5 2.5l.5 1.5.5 1.5 1 1.5 1 1.5v1 1l1 1 1 1" style="fill:#755749;stroke:#755749"/><path d="m183 405v1h2 2l1.5-.5 1.5-.5-.5-2-.5-2-.5-1.5-.5-1.5 1.5-.5 1.5-.5h-1-1l-1-1-1-1 .5-1 .5-1 .5.5.5.5.5-.5.5-.5.5-.5.5-.5.5-1 .5-1v-1-1h-1-1l-.5.5-.5.5-.5-1-.5-1v-1.5-1.5l-1 .5-1 .5-.5 2-.5 2v2 2l-.5.5-.5.5-1-1-1-1-.5-2.5-.5-2.5v2 2l.5 2.5.5 2.5.5 1 .5 1 .5.5.5.5v1 1l-.5 2-.5 2" style="fill:#362d30;stroke:#362d30"/><path d="m374 403v1l.5-1 .5-1-.5-1.5-.5-1.5v-2.5-2.5-2-2-2.5-2.5-2-2-2.5-2.5-2-2-2-2l-.5-1-.5-1v1.5 1.5 2 2 2.5 2.5 2 2 2.5 2.5 2 2 2.5 2.5 2 2l.5 1.5.5 1.5" style="fill:#eddee0;stroke:#eddee0"/><path d="m549 402l1-1 .5-2 .5-2-.5-1.5-.5-1.5-.5-1.5-.5-1.5-.5.5-.5.5-1-1.5-1-1.5v-2-2l-1-1.5-1-1.5-.5-1.5-.5-1.5-1.5-1-1.5-1-1-1-1-1-.5-1.5-.5-1.5-1.5 1-1.5 1 .5 2.5.5 2.5 1 1 1 1 1 1.5 1 1.5 1 1 1 1v1.5 1.5l.5.5.5.5 1 1 1 1 .5 1 .5 1v1 1l-1 1-1 1 1 .5 1 .5.5.5.5.5 1.5 1 1.5 1" style="fill:#755749;stroke:#755749"/><g style="fill:#bfb1b0;stroke:#bfb1b0"><path d="m368 401v1h.5.5v-1.5-1.5-2-2-2.5-2.5-2-2-2-2-2.5-2.5-2-2-2.5-2.5-2-2-2.5-2.5-2-2l-.5 1.5-.5 1.5v1 1 1 1 2 2 2.5 2.5 2.5 2.5 2 2 2 2 2.5 2.5 2 2 2.5 2.5 1.5 1.5"/><path d="m414 400v1l.5-15 .5-15v-11-11-2-2l-1 15.5-1 15.5.5 12 .5 12"/></g><path d="m196 399l6-14 5-5 5-5 .5 6 .5 6 1.5-12 1.5-12-6.5 5.5-6.5 5.5-.5 3-.5 3-3 9.5-3 9.5" style="fill:#362d30;stroke:#362d30"/><path d="m523 399l-7-15 2 5.5 2 5.5 1.5 2 1.5 2" style="fill:#939095;stroke:#939095"/><path d="m195 398l1 1 3-9.5 3-9.5.5-3 .5-3 6.5-5.5 6.5-5.5 1.5-1 1.5-1 1-1 1-1-1-1-1-1-1 1.5-1 1.5-1-1-1-1 .5-2 .5-2 1-1 1-1 .5-1.5.5-1.5-.5-1-.5-1h-2-2v.5.5l-3.5 9.5-3.5 9.5-5 7-5 7-5 7-5 7 1 1 1 1h1 1l1.5-1 1.5-1 .5 1.5.5 1.5" style="fill:#583a2d;stroke:#583a2d"/><path d="m527 397v1h.5.5l1.5-1.5 1.5-1.5-.5-2-.5-2-.5-1.5-.5-1.5-2-1-2-1v1.5 1.5 2.5 2.5l1 1 1 1v.5.5" style="fill:#755749;stroke:#755749"/><path d="m181 395l1 1-.5-2.5-.5-2.5v-2-2l.5-1 .5-1v-1-1l.5-.5.5-.5.5-1 .5-1v-1-1l.5-.5.5-.5.5-.5.5-.5.5-1 .5-1 .5-.5.5-.5v-1-1h1 1l.5.5.5.5.5.5.5.5-.5 1-.5 1v1 1 1 1 1 1l-1 .5-1 .5-.5 1-.5 1v1.5 1.5l3-10.5 3-10.5-6 6-6 6-.5 8.5-.5 8.5" style="fill:#583a2d;stroke:#583a2d"/><path d="m184 394l1-1v-2-2l.5-2 .5-2 1-.5 1-.5.5-1 .5-1 1-.5 1-.5v-1-1-1-1-1-1l.5-1 .5-1-.5-.5-.5-.5-.5-.5-.5-.5h-1-1v1 1l-.5.5-.5.5-.5 1-.5 1-.5.5-.5.5-.5.5-.5.5v1 1l-.5 1-.5 1-.5.5-.5.5v1 1l-.5 1-.5 1 .5 2.5.5 2.5 1 1 1 1" style="fill:#20160d;stroke:#20160d"/><path d="m276 394l2-20-1-9.5-1-9.5v-9-9l-.5 11-.5 11v13 13l.5 4.5.5 4.5" style="fill:#939095;stroke:#939095"/><path d="m524 393l1 1v-2.5-2.5-1.5-1.5l-1-.5-1-.5-1-1-1-1-.5-.5-.5-.5-1-.5-1-.5v-1-1l-.5-.5-.5-.5v-1-1l-.5-1-.5-1-.5-.5-.5-.5v-2-2l-1-.5-1-.5-1-1-1-1-.5-1.5-.5-1.5v-1-1l-.5-1-.5-1-.5-1.5-.5-1.5-1-.5-1-.5-1.5-1.5-1.5-1.5-1-1.5-1-1.5-1.5-1.5-1.5-1.5 5 7.5 5 7.5 3.5 8 3.5 8 4.5 8 4.5 8" style="fill:#5e5b65;stroke:#5e5b65"/><path d="m548 392l1-1v-2-2l-.5-2-.5-2-.5-1.5-.5-1.5-1-1.5-1-1.5-1-1.5-1-1.5-.5-.5-.5-.5-1-.5-1-.5-.5-1-.5-1-1-1-1-1-1-.5-1-.5 1 2.5 1 2.5.5 1.5.5 1.5 1 1 1 1 1.5 1 1.5 1 .5 1.5.5 1.5 1 1.5 1 1.5v2 2l1 1.5 1 1.5" style="fill:#583a2d;stroke:#583a2d"/><path d="m286 388v1l.5-1 .5-1v-2-2l.5-2 .5-2v-2-2l.5-2 .5-2v-2-2l.5-2 .5-2v-2-2-2-2-2.5-2.5h.5.5v-.5-.5l-1-10.5-1-10.5v-10-10l.5-10.5.5-10.5 2-8.5 2-8.5 3.5 14.5 3.5 14.5.5-1.5.5-1.5.5-1.5.5-1.5-.5-2-.5-2 1-1 1-1v-1.5-1.5l.5-1.5.5-1.5.5-2 .5-2 .5-1.5.5-1.5.5-.5.5-.5v-.5-.5l.5-1.5.5-1.5v-1-1-1-1h-1-1l-1 .5-1 .5h-1-1-1-1l-.5-.5-.5-.5h-2-2l-5 16.5-5 16.5v11 11 12.5 12.5l-.5 10.5-.5 10.5.5 11 .5 11" style="fill:#4a434a;stroke:#4a434a"/><path d="m454 387l2-23 1-8.5 1-8.5v-8.5-8.5l2 3.5 2 3.5 2-9 2-9v-2.5-2.5-1.5-1.5-2-2l-.5-2-.5-2-1-1-1-1-1-1.5-1-1.5-.5-1.5-.5-1.5-1-1-1-1 .5 1 .5 1v2.5 2.5l-.5 1.5-.5 1.5v1.5 1.5l.5 1.5.5 1.5v2.5 2.5l-1 1-1 1h-1-1v-3-3l-.5-1.5-.5-1.5.5-2 .5-2v-2-2-1.5-1.5-2-2l1.5.5 1.5.5-2 14.5-2 14.5-.5 10.5-.5 10.5v10.5 10.5l.5 11.5.5 11.5" style="fill:#939095;stroke:#939095"/><path d="m523 385l2 1 1-1.5 1-1.5.5-.5.5-.5.5-1.5.5-1.5.5-1 .5-1v-1-1l.5-1 .5-1-3-7-3-7-6-5.5-6-5.5-5.5-6-5.5-6-5.5-6-5.5-6-5.5-7-5.5-7-8-14-8-14-.5 1-.5 1-1.5-.5-1.5-.5-.5-1.5-.5-1.5h-1-1l-.5-.5-.5-.5-.5-1-.5-1-.5-.5-.5-.5v-1-1l-.5-.5-.5-.5-.5-1-.5-1-.5-.5-.5-.5.5-.5.5-.5v-1-1-1.5-1.5l1-1 1-1-.5-1-.5-1h-1-1l-.5-.5-.5-.5.5-1 .5-1-.5-1.5-.5-1.5-.5-.5-.5-.5v-1.5-1.5l-.5-1.5-.5-1.5-.5-.5-.5-.5v-1-1l-.5-.5-.5-.5-.5-1-.5-1-.5-1-.5-1-.5 1-.5 1v2 2l.5 2 .5 2 .5 1.5.5 1.5.5 2 .5 2 .5 1.5.5 1.5.5 2 .5 2 .5 2 .5 2 .5 1.5.5 1.5v2 2l.5 1.5.5 1.5 1 1.5 1 1.5 1 1 1 1 1 1.5 1 1.5.5 1 .5 1 1.5 1.5 1.5 1.5 1 1.5 1 1.5 1 1 1 1 1 2 1 2 1 1 1 1 5.5 7 5.5 7 6.5 9 6.5 9 1 1.5 1 1.5 1 1 1 1 1 1 1 1 .5.5.5.5.5 1 .5 1 .5 1.5.5 1.5.5.5.5.5 1 1.5 1 1.5 2 1 2 1 1 1 1 1 .5 2 .5 2 .5 1.5.5 1.5.5 2 .5 2 .5 2 .5 2v2 2l.5.5.5.5.5 1 .5 1v1 1l.5.5.5.5v1 1l1 .5 1 .5.5.5.5.5 1 1 1 1" style="fill:#755749;stroke:#755749"/><path d="m178 379l14-15 6-1 6-1 3-6 3-6-8 4.5-8 4.5-7 6.5-7 6.5-1 2.5-1 2.5v1 1" style="fill:#947669;stroke:#947669"/><path d="m417 379h2l.5-2 .5-2 .5-1.5.5-1.5.5-2 .5-2 .5-1.5.5-1.5v-2-2l-.5-2-.5-2v-2-2-2.5-2.5-2.5-2.5-1.5-1.5l-.5-2-.5-2v-2-2l-1-1.5-1-1.5-1.5-.5-1.5-.5-.5 2-.5 2v2 2 2 2 2.5 2.5 2 2l.5 1 .5 1v1 1 1 1l.5.5.5.5v1.5 1.5l-.5.5-.5.5v1 1 1 1l.5.5.5.5v1.5 1.5 1 1 1 1 1 1 1 1 1.5 1.5" style="fill:#ded0cf;stroke:#ded0cf"/><path d="m239 377h2l.5-1.5.5-1.5.5-2 .5-2-1-1-1-1h-1.5-1.5l-.5 1.5-.5 1.5.5 2 .5 2 .5 1 .5 1" style="fill:#727079;stroke:#727079"/><path d="m435 375l2-25 .5-11.5.5-11.5v-13.5-13.5-13.5-13.5h-1-1l-1 1-1 1v1.5 1.5 1 1l-.5 1.5-.5 1.5v1.5 1.5 1 1 2 2 2 2l.5 16.5.5 16.5.5 11 .5 11v12 12" style="fill:#5e5b65;stroke:#5e5b65"/><path d="m533 373l1 1 1.5-1 1.5-1-1-2.5-1-2.5-6.5-6-6.5-6 5.5 1.5 5.5 1.5-5-8.5-5-8.5-3-8.5-3-8.5-4-7.5-4-7.5-4-7.5-4-7.5-4.5-8.5-4.5-8.5 4 8.5 4 8.5 3.5 8 3.5 8 4.5 10.5 4.5 10.5-6-7-6-7-5-8-5-8-4.5-7-4.5-7-5-8-5-8-4.5-7-4.5-7-4-9-4-9-3-8.5-3-8.5-2-11-2-11-2.5-9-2.5-9-1.5-10.5-1.5-10.5-2.5 5-2.5 5-4.5-6.5-4.5-6.5v8.5 8.5l-3.5-6.5-3.5-6.5-5-14-5-14 3 12 3 12 3.5 8.5 3.5 8.5 3 9 3 9 3.5 5.5 3.5 5.5 3.5 8 3.5 8 4.5 8.5 4.5 8.5 4 7.5 4 7.5 4 9 4 9 4 7.5 4 7.5 4 9 4 9 5 9.5 5 9.5-4.5-8-4.5-8-4.5-8-4.5-8-4.5-7-4.5-7-4-7.5-4-7.5-4-8.5-4-8.5-4-5-4-5 1 2.5 1 2.5.5 1 .5 1 .5 1 .5 1 .5.5.5.5v1 1l.5.5.5.5.5 1.5.5 1.5v1.5 1.5l.5.5.5.5.5 1.5.5 1.5-.5 1-.5 1 .5.5.5.5h1 1l.5 1 .5 1 1 2 1 2 .5 1.5.5 1.5 1 1.5 1 1.5.5 1.5.5 1.5 1 1.5 1 1.5 1 2 1 2 8 14 8 14 5.5 7 5.5 7 5.5 6 5.5 6 5.5 6 5.5 6 6 5.5 6 5.5 3 7 3 7h1 1" style="fill:#4a434a;stroke:#4a434a"/><path d="m542 373l1 1-.5-1-.5-1-1-1-1-1-.5-2-.5-2-1-1-1-1-1-1.5-1-1.5-1-1.5-1-1.5-5.5-1.5-5.5-1.5 6.5 6 6.5 6 1 .5 1 .5 1 1 1 1 .5 1 .5 1 1 .5 1 .5" style="fill:#362d30;stroke:#362d30"/><path d="m270 371l1 1v-12-12l-2 7.5-2 7.5v2 2l.5-2.5.5-2.5h.5.5l.5.5.5.5v2 2 2 2" style="fill:#939095;stroke:#939095"/><path d="m410 369v1l.5-1 .5-1v-2.5-2.5-2-2-2-2-2.5-2.5l.5-1.5.5-1.5v-2.5-2.5-2-2-2.5-2.5l-.5-2-.5-2v1.5 1.5 1 1 2 2 1.5 1.5 1 1 2 2l-.5 1-.5 1-.5.5-.5.5v2 2 1.5 1.5 1 1 1 1 1 1l.5 1.5.5 1.5v1.5 1.5" style="fill:#727079;stroke:#727079"/><path d="m513 368l2 1-.5-2-.5-2-.5-2-.5-2-.5-1.5-.5-1.5-.5-2-.5-2-1-1-1-1-2-1-2-1 .5 1 .5 1 1 2 1 2 .5 1.5.5 1.5.5 1 .5 1v1 1l.5 1.5.5 1.5 1 1 1 1" style="fill:#583a2d;stroke:#583a2d"/><path d="m367 365v1h.5.5v-2-2-1-1-1-1l.5-1.5.5-1.5v-1.5-1.5-1-1-2-2-2-2-2.5-2.5-2-2-1.5-1.5-1-1-1.5-1.5-1.5-1.5-.5-.5l.5-11.5.5-11.5.5-1 .5-1 .5 13 .5 13v16.5 16.5l.5 1 .5 1v-13.5-13.5-13.5-13.5-13-13l-1.5-7-1.5-7-1 12.5-1 12.5-.5 12.5-.5 12.5v13.5 13.5 12.5 12.5" style="fill:#eddee0;stroke:#eddee0"/><path d="m188 357l3 1 1-1 1-1 1.5-1 1.5-1 .5-.5.5-.5h-2-2l5.5-6 5.5-6 5.5-7 5.5-7-5.5 10.5-5.5 10.5 1.5-.5 1.5-.5 1-1 1-1 1-1 1-1 1.5-1 1.5-1 1.5-.5 1.5-.5.5-1 .5-1-1-.5-1-.5 2.5-7 2.5-7 6.5-5 6.5-5 5.5-6 5.5-6 6-6.5 6-6.5 5-6.5 5-6.5 4.5-7 4.5-7 8-13.5 8-13.5-4.5 7.5-4.5 7.5-5 7.5-5 7.5-5.5 6-5.5 6-8 6.5-8 6.5 5-7.5 5-7.5 5-6.5 5-6.5 5-8 5-8 4.5-7 4.5-7 5-8 5-8 5-10.5 5-10.5-5 9-5 9-5 8-5 8-4.5 7-4.5 7-10.5 12.5-10.5 12.5 5-7.5 5-7.5 4.5-7.5 4.5-7.5 4-8.5 4-8.5 4.5-7.5 4.5-7.5 5-7.5 5-7.5 4-7 4-7 5-7.5 5-7.5 3.5-2.5 3.5-2.5-5 7.5-5 7.5-5.5 11.5-5.5 11.5 1-.5 1-.5 1-2 1-2 4.5-8 4.5-8 4-7.5 4-7.5 5.5-8.5 5.5-8.5-1-2-1-2-5 6.5-5 6.5 5-8 5-8-8-2-8-2-1 1-1 1-1.5.5-1.5.5-.5.5-.5.5-1 .5-1 .5-1.5.5-1.5.5-1.5-.5-1.5-.5-2 1.5-2 1.5v.5.5l.5 4 .5 4-.5 8-.5 8-7 2.5-7 2.5-3.5 9.5-3.5 9.5-4 9.5-4 9.5-3.5 9.5-3.5 9.5-3 7.5-3 7.5-4 9.5-4 9.5-4 8-4 8-4.5 9-4.5 9-5 8-5 8-5.5 6-5.5 6-4.5 6.5-4.5 6.5-4 5.5-4 5.5-4 6-4 6" style="fill:#5e5b65;stroke:#5e5b65"/><path d="m506 355l2 1-1-2-1-2-.5-1-.5-1-1-1.5-1-1.5-.5-.5-.5-.5-.5-1.5-.5-1.5-.5-1-.5-1-.5-.5-.5-.5-1-1-1-1-1-1-1-1-1-1.5-1-1.5-.5-.5-.5-.5-1-.5-1-.5-.5-.5-.5-.5-.5-1-.5-1-1-1-1-1v1 1l1 2 1 2 1 1 1 1 .5 1.5.5 1.5 1 1 1 1 .5 1 .5 1 1 1 1 1v1 1l1 .5 1 .5 1.5 1.5 1.5 1.5 1 1.5 1 1.5 1.5 1.5 1.5 1.5" style="fill:#4a434a;stroke:#4a434a"/><path d="m371 354v1h.5.5v-16.5-16.5l-.5-13-.5-13v1.5 1.5 2 2 1 1 1.5 1.5 2 2 2.5 2.5 2 2 2 2 1 1 2 2 1.5 1.5 1 1 1 1 1 1 1.5 1.5 1 1 1 1 1 1 2.5 2.5" style="fill:#cebec1;stroke:#cebec1"/><path d="m193 353h4l1.5-2 1.5-2 1.5-.5 1.5-.5h.5.5l5.5-10.5 5.5-10.5-5.5 7-5.5 7-5.5 6-5.5 6" style="fill:#727079;stroke:#727079"/><path d="m419 353l1-21-1.5 7-1.5 7 1 3.5 1 3.5" style="fill:#eddee0;stroke:#eddee0"/><g style="fill:#5e5b65;stroke:#5e5b65"><path d="m526 352l-9-13-6-7.5-6-7.5-6-7-6-7-4.5-7-4.5-7 3.5 8.5 3.5 8.5 5 6.5 5 6.5 6.5 6.5 6.5 6.5 6 6.5 6 6.5"/><path d="m291 349v1l2-10.5 2-10.5 2-11.5 2-11.5 1-3.5 1-3.5-3.5-14.5-3.5-14.5-2 8.5-2 8.5-.5 10.5-.5 10.5v10 10l1 10.5 1 10.5"/><path d="m465 348v1l.5-1 .5-1v-1-1-1-1-1.5-1.5-1-1-1-1-1-1l.5-1 .5-1v-1-1-1-1-1-1-1.5-1.5-1-1-1-1-1-1-1.5-1.5h-.5-.5v2.5 2.5 3.5 3.5l-.5 1.5-.5 1.5v1.5 1.5 1 1 2 2 1.5 1.5 1 1l-.5 1.5-.5 1.5.5 1 .5 1"/></g><path d="m514 345l-10-12-2.5-1-2.5-1 6.5 6.5 6.5 6.5 1 .5 1 .5" style="fill:#362d30;stroke:#362d30"/><path d="m216 337l2 1 7.5-6.5 7.5-6.5 6.5-6.5 6.5-6.5 6.5-7 6.5-7 5.5-8 5.5-8 5-8 5-8 5-8.5 5-8.5 4.5-8.5 4.5-8.5 3.5-7 3.5-7v-.5-.5l.5-2 .5-2 .5-1.5.5-1.5-.5-1-.5-1-1 1-1 1-.5 1-.5 1-.5.5-.5.5-.5.5-.5.5-.5.5-.5.5-.5 1-.5 1v1 1l-.5.5-.5.5-.5.5-.5.5-.5 1-.5 1v1 1l-.5.5-.5.5-.5.5-.5.5-.5.5-.5.5-.5 1-.5 1v1 1l-.5 1-.5 1-8 13.5-8 13.5-4.5 7-4.5 7-5 6.5-5 6.5-6 6.5-6 6.5-5.5 6-5.5 6-6.5 5-6.5 5-2.5 7-2.5 7" style="fill:#727079;stroke:#727079"/><path d="m283 337l2-24 .5-11 .5-11v-4-4l5-9 5-9 6-6.5 6-6.5 2.5 4 2.5 4v-3.5-3.5l.5-1.5.5-1.5v-1-1l-.5-2-.5-2-.5-1.5-.5-1.5-.5-2-.5-2-.5-1.5-.5-1.5v-2.5-2.5-2-2l-1.5 12-1.5 12-9 8-9 8-.5-1-.5-1-1 6-1 6-2 6.5-2 6.5v13 13l.5 11.5.5 11.5" style="fill:#291c24;stroke:#291c24"/><path d="m492 332l1 1-6.5-9-6.5-9-5.5-7-5.5-7-.5 2-.5 2 1 1 1 1 1 1.5 1 1.5 1 1 1 1 .5 1 .5 1 .5.5.5.5 1 1 1 1 1 .5 1 .5.5.5.5.5.5 1.5.5 1.5 1 .5 1 .5.5.5.5.5.5 1 .5 1 1 1 1 1 .5 1 .5 1 .5.5.5.5 1 .5 1 .5" style="fill:#583a2d;stroke:#583a2d"/><path d="m516 331l-9-21-3.5-8-3.5-8-4-8.5-4-8.5-.5-.5-.5-.5-4-8-4-8-3-8.5-3-8.5-4-9-4-9-3-8.5-3-8.5-1.5-9.5-1.5-9.5-3.5-10-3.5-10-4-5-4-5 2-6.5 2-6.5-5-3.5-5-3.5-6.5-4.5-6.5-4.5-8.5 2-8.5 2 5 14 5 14 3.5 6.5 3.5 6.5v-8.5-8.5l4.5 6.5 4.5 6.5 2.5-5 2.5-5 1.5 10.5 1.5 10.5 2.5 9 2.5 9 2 11 2 11 3 8.5 3 8.5 4 9 4 9 4.5 7 4.5 7 5 8 5 8 4.5 7 4.5 7 5 8 5 8 6 7 6 7" style="fill:#5e5b65;stroke:#5e5b65"/><g style="fill:#362d30;stroke:#362d30"><path d="m409 324h2l1.5-.5 1.5-.5 1-1 1-1 1-.5 1-.5-.5-.5-.5-.5v-2.5-2.5l-1-1-1-1-.5-2-.5-2-.5-1.5-.5-1.5-.5-1-.5-1 .5 2.5.5 2.5.5 1.5.5 1.5.5 2 .5 2v1 1l-2 .5-2 .5-1.5-.5-1.5-.5-1.5 1-1.5 1 .5 2.5.5 2.5h1.5 1.5"/><path d="m493 322l-10-19-4-9-4-9-4-7.5-4-7.5-4-9-4-9-4-7.5-4-7.5-4.5-8.5-4.5-8.5-3.5-8-3.5-8-3.5-5.5-3.5-5.5 1.5 10.5 1.5 10.5 2.5 4 2.5 4 .5-1.5.5-1.5.5.5.5.5v1 1l.5.5.5.5v1.5 1.5l.5 1.5.5 1.5v1 1 1.5 1.5h1 1l4 5 4 5 4 8.5 4 8.5 4 7.5 4 7.5 4.5 7 4.5 7 4.5 8 4.5 8 4.5 8 4.5 8"/></g><path d="m369 321v1l1-.5 1-.5v-2-2-2.5-2.5-2-2-1.5-1.5-1-1-2-2-1.5-1.5l-.5 1-.5 1-.5 11.5-.5 11.5" style="fill:#939095;stroke:#939095"/><path d="m417 319l1 1v-.5-.5l-1.5-11-1.5-11-4-18-4-18-1-.5-1-.5.5 2 .5 2-.5 1.5-.5 1.5v2.5 2.5 2 2l.5 2 .5 2 .5 1.5.5 1.5v1.5 1.5l1 2 1 2v2 2l.5 2 .5 2 .5 1.5.5 1.5.5 1 .5 1 .5 1 .5 1 .5 1.5.5 1.5.5 2 .5 2 1 1 1 1v2.5 2.5" style="fill:#291c24;stroke:#291c24"/><path d="m418 319v1l1-.5 1-.5v-2-2-2.5-2.5l-.5-1.5-.5-1.5v-3-3l-2.5-10.5-2.5-10.5-3.5-9.5-3.5-9.5 4 18 4 18 1.5 11 1.5 11" style="fill:#362d30;stroke:#362d30"/><path d="m455 316h2l1-1 1-1v-2.5-2.5l-.5-1.5-.5-1.5v-1.5-1.5l.5-1.5.5-1.5v-2.5-2.5l-.5-1-.5-1-1.5-.5-1.5-.5v2 2 1.5 1.5 2 2l-.5 2-.5 2 .5 1.5.5 1.5v3 3" style="fill:#b1a0a3;stroke:#b1a0a3"/><path d="m392 313v1l1.5-.5 1.5-.5 1-1 1-1-.5-2-.5-2v-2-2-2.5-2.5-2-2-2.5-2.5-1.5-1.5l-.5 1-.5 1v2 2 1 1 1.5 1.5 2 2h-1-1l1-11 1-11 2-2.5 2-2.5.5-2 .5-2 .5-1.5.5-1.5-1-1.5-1-1.5v-2-2l1-1.5 1-1.5h1 1v1.5 1.5l.5 1.5.5 1.5.5-4 .5-4-2.5-.5-2.5-.5h-1.5-1.5l-1.5-.5-1.5-.5-2 .5-2 .5.5 1 .5 1 1.5 7.5 1.5 7.5-2.5 17.5-2.5 17.5h-2.5-2.5-1-1-1.5-1.5v2 2l1.5.5 1.5.5 1 1 1 1h2.5 2.5 1.5 1.5" style="fill:#4a434a;stroke:#4a434a"/><path d="m389 306l5-35-1.5-7.5-1.5-7.5-3.5 14.5-3.5 14.5-2.5 10.5-2.5 10.5h1.5 1.5 1 1 2.5 2.5" style="fill:#5e5b65;stroke:#5e5b65"/><path d="m393 301h2v-2-2-1.5-1.5-1-1-2-2l.5-1 .5-1 .5-2.5.5-2.5.5-2 .5-2 .5-1.5.5-1.5-2 2.5-2 2.5-1 11-1 11" style="fill:#362d30;stroke:#362d30"/><path d="m397 292h2l1-1 1-1v-2.5-2.5l.5-1.5.5-1.5v-2.5-2.5l-1-1-1-1-.5 2-.5 2-.5 1.5-.5 1.5v2 2l-.5 2-.5 2v1 1" style="fill:#727079;stroke:#727079"/><path d="m246 289l16-13 5.5-6 5.5-6 5-7.5 5-7.5 4.5-7.5 4.5-7.5.5-1 .5-1v-1-1l.5-1 .5-1 .5-.5.5-.5.5-.5.5-.5.5-.5.5-.5v-1-1l.5-1 .5-1 .5-.5.5-.5.5-.5.5-.5v-1-1l.5-1 .5-1 .5-.5.5-.5.5-.5.5-.5.5-.5.5-.5.5-1 .5-1 .5-2 .5-2 .5-1.5.5-1.5-4.5 7.5-4.5 7.5-4 7.5-4 7.5-6.5 8-6.5 8 4.5-8 4.5-8 4.5-7 4.5-7 7-15 7-15-1 2-1 2-1 .5-1 .5-5 10.5-5 10.5-5 8-5 8-4.5 7-4.5 7-5 8-5 8-5 6.5-5 6.5-5 7.5-5 7.5" style="fill:#4a434a;stroke:#4a434a"/><path d="m406 285v1h.5.5v-1.5-1.5l-.5-1.5-.5-1.5-.5-2-.5-2v-2-2-2.5-2.5l.5-1.5.5-1.5-.5-2-.5-2 1 .5 1 .5 1.5-1.5 1.5-1.5-1.5-1-1.5-1 1-.5 1-.5h-2-2l-.5 4-.5 4v2.5 2.5 1 1 2 2 2 2l.5 2 .5 2 .5 1.5.5 1.5" style="fill:#362d30;stroke:#362d30"/><path d="m460 283l3 1 .5-1 .5-1-1-2-1-2-1-1.5-1-1.5-.5-1.5-.5-1.5-1-1.5-1-1.5-.5-1.5-.5-1.5-1-2-1-2-1 1-1 1v1.5 1.5 1 1l-.5.5-.5.5.5.5.5.5.5 1 .5 1 .5.5.5.5v1 1l.5.5.5.5.5 1 .5 1 .5.5.5.5h1 1l.5 1.5.5 1.5" style="fill:#947669;stroke:#947669"/><path d="m491 276l1 1-5.5-14.5-5.5-14.5-2.5-9-2.5-9-3-8.5-3-8.5-2-10.5-2-10.5-1-6.5-1-6.5-3-8.5-3-8.5-4.5-8-4.5-8-2 6.5-2 6.5 4 5 4 5 3.5 10 3.5 10 1.5 9.5 1.5 9.5 3 8.5 3 8.5 4 9 4 9 3 8.5 3 8.5 4 8 4 8" style="fill:#4a434a;stroke:#4a434a"/><path d="m308 272v1l.5-1 .5-1 .5-1.5.5-1.5.5-2 .5-2 1-1 1-1v-1-1l-2.5-4-2.5-4-6 6.5-6 6.5h2 2l.5.5.5.5h1 1 1 1l1-.5 1-.5h1 1v1 1 1 1l-.5 1.5-.5 1.5" style="fill:#362d30;stroke:#362d30"/><path d="m255 267l21-25 4.5-7 4.5-7 5-8 5-8 5-9 5-9 5.5-11.5 5.5-11.5 5-7.5 5-7.5-3.5 2.5-3.5 2.5-5 7.5-5 7.5-4 7-4 7-5 7.5-5 7.5-4.5 7.5-4.5 7.5-4 8.5-4 8.5-4.5 7.5-4.5 7.5-5 7.5-5 7.5" style="fill:#727079;stroke:#727079"/><path d="m426 267l3 1h2 2l2-.5 2-.5h1 1 1.5 1.5l-.5-1.5-.5-1.5 1-1.5 1-1.5.5-1 .5-1-.5-2-.5-2-.5-2-.5-2v-2-2l-1-1.5-1-1.5v-2-2-3-3-1.5-1.5-1-1l-.5-1.5-.5-1.5v-1.5-1.5l-.5-.5-.5-.5v-1-1l-.5-.5-.5-.5-.5 1.5-.5 1.5-.5 1-.5 1v1.5 1.5l-.5.5-.5.5-.5 1.5-.5 1.5-.5 1-.5 1 .5 1 .5 1 1 .5 1 .5v1 1 1.5 1.5 2 2l.5.5.5.5v1 1l-.5.5-.5.5-.5 1-.5 1h-1-1l-.5.5-.5.5-.5.5-.5.5-1 .5-1 .5-.5.5-.5.5-1 1.5-1 1.5h-1-1v1 1l.5.5.5.5.5 1 .5 1v1 1l.5 1 .5 1" style="fill:#20160d;stroke:#20160d"/><path d="m447 266l1 1h.5.5l-.5-2-.5-2-.5-2-.5-2-.5-1.5-.5-1.5-.5-2-.5-2-.5-1.5-.5-1.5-.5-2-.5-2v-2-2l.5-1 .5-1-1-2.5-1-2.5h-1-1v3 3 2 2l1 1.5 1 1.5v2 2l.5 2 .5 2 .5 2 .5 2 .5 1 .5 1 .5 1 .5 1 .5 1.5.5 1.5" style="fill:#583a2d;stroke:#583a2d"/><path d="m289 265l18-16 1.5-12 1.5-12 .5-1.5.5-1.5v-2-2l-.5-.5-.5-.5-6.5 15-6.5 15-4.5 8-4.5 8 .5 1 .5 1" style="fill:#20160d;stroke:#20160d"/><g style="fill:#4a434a;stroke:#4a434a"><path d="m319 254h2 2 2l2-.5 2-.5v-.5-.5h1.5 1.5l-1.5-1-1.5-1-1.5.5-1.5.5 1-1.5 1-1.5 1.5-.5 1.5-.5h2 2l1-1.5 1-1.5-3 .5-3 .5h-2-2l-2 .5-2 .5-1.5.5-1.5.5-1.5 1-1.5 1-1 1-1 1 1 1 1 1 1-.5 1-.5v1 1"/><path d="m381 253l3 1h2 2l-.5-1-.5-1-1.5-.5-1.5-.5-2-.5-2-.5-1.5-.5-1.5-.5h-2.5-2.5l-1.5-.5-1.5-.5h-1.5-1.5l2 1 2 1 1.5 1.5 1.5 1.5h1.5 1.5 2 2 .5.5"/></g><path d="m428 253v1l1-.5 1-.5.5-.5.5-.5.5-.5.5-.5h1 1l.5-1 .5-1 .5-.5.5-.5v-1-1l-.5-.5-.5-.5v-2-2-1.5-1.5-1-1l-1-.5-1-.5-.5-1-.5-1-1 1.5-1 1.5v2.5 2.5l-1 1-1 1-.5 2-.5 2-.5 1.5-.5 1.5-.5 1.5-.5 1.5h1.5 1.5" style="fill:#291c24;stroke:#291c24"/><path d="m329 252v1h1.5 1.5l1.5-.5 1.5-.5h2.5 2.5l1.5.5 1.5.5h2.5 2.5 2 2 2.5 2.5 2 2 2 2 2.5 2.5 1.5 1.5l-1.5-1.5-1.5-1.5-2-1-2-1-1-.5-1-.5h-1-1-1.5-1.5l-1.5-.5-1.5-.5-1.5-.5-1.5-.5h-2.5-2.5l-1.5-.5-1.5-.5h-2.5-2.5-1.5-1.5l-1 1.5-1 1.5h-2-2l-1.5.5-1.5.5-1 1.5-1 1.5 1.5-.5 1.5-.5 1.5 1 1.5 1h-1.5-1.5" style="fill:#5e5b65;stroke:#5e5b65"/><path d="m277 249l13-16 4-7.5 4-7.5 4.5-7.5 4.5-7.5 4-8 4-8 5.5-12 5.5-12v-.5-.5l5.5-7.5 5.5-7.5v-3-3l-5.5 8.5-5.5 8.5-4 7.5-4 7.5-4.5 8-4.5 8-7 15-7 15-4.5 7-4.5 7-4.5 8-4.5 8" style="fill:#362d30;stroke:#362d30"/><path d="m390 249l3 1v-1-1l-2-.5-2-.5h-1.5-1.5-.5-.5l-1-.5-1-.5-.5-1-.5-1-2 1-2 1-1.5-.5-1.5-.5-1.5-.5-1.5-.5h-1.5-1.5l-2.5-.5-2.5-.5-2-.5-2-.5-2 .5-2 .5 1.5.5 1.5.5h2 2l2 .5 2 .5h2 2l1.5.5 1.5.5 2 .5 2 .5 1.5.5 1.5.5 2 .5 2 .5h2 2 .5.5" style="fill:#f8f3d0;stroke:#f8f3d0"/><path d="m386 247h3l2 .5 2 .5.5-1 .5-1 .5-1.5.5-1.5v-1.5-1.5-1-1-1-1-1-1-1.5-1.5-1-1-1-1-1-1l.5-.5.5-.5.5-.5.5-.5v1.5 1.5 1 1 1 1 1 1l.5 1 .5 1v1 1 1 1 1 1 1.5 1.5l.5 1.5.5 1.5.5-3 .5-3 .5-1.5.5-1.5v-2-2l.5-2 .5-2v-2-2l.5-2 .5-2 .5-1.5.5-1.5v-2.5-2.5l.5-1.5.5-1.5v-2.5-2.5l1-1 1-1 .5 1.5.5 1.5-.5 2-.5 2v2 2 2.5 2.5 2 2l-.5 1.5-.5 1.5 1.5 4 1.5 4 1.5-12 1.5-12 .5-3 .5-3v-.5-.5-2.5-2.5l.5-1.5.5-1.5.5-2 .5-2-.5-1.5-.5-1.5-.5-2-.5-2-.5-1.5-.5-1.5v-1.5-1.5l-2-10-2-10-2.5-11-2.5-11 .5 21 .5 21-1.5-11.5-1.5-11.5-1.5-3-1.5-3-2-2-2-2-2.5 9-2.5 9v-9-9l7-4.5 7-4.5-10.5-2-10.5-2-12.5-1-12.5-1-5.5 8-5.5 8-4.5 6.5-4.5 6.5-5 8.5-5 8.5-3.5 9.5-3.5 9.5-1.5 10-1.5 10-.5 9.5-.5 9.5 4.5 3 4.5 3h8 8v-.5-.5l1.5.5 1.5.5 4.5-7.5 4.5-7.5 3-8.5 3-8.5-1.5 10.5-1.5 10.5v7 7l2-.5 2-.5 2 .5 2 .5 2.5.5 2.5.5v-.5-.5-3-3-2.5-2.5l.5-1.5.5-1.5v-2-2l1 .5 1 .5v2 2 2.5 2.5 2 2 2.5 2.5l1.5.5 1.5.5 1.5.5 1.5.5 2-1 2-1v-1.5-1.5-1.5-1.5-1-1-1.5-1.5l1-1 1-1 .5.5.5.5.5 1 .5 1v2 2 1 1 1.5 1.5l-.5 2-.5 2h.5.5" style="fill:#fffff7;stroke:#fffff7"/><path d="m398 247l1-1-.5-1.5-.5-1.5v-1.5-1.5-1-1-1-1-1-1l-.5-1-.5-1v-1-1-1-1-1-1-1.5-1.5l-.5.5-.5.5-.5.5-.5.5v1 1 1 1 1 1 1.5 1.5 1 1 1 1 1 1 1.5 1.5h1 1l.5 2 .5 2" style="fill:#eddee0;stroke:#eddee0"/><path d="m413 247l9-15 2-11.5 2-11.5-3 3-3 3-2 9.5-2 9.5-1.5 6.5-1.5 6.5" style="fill:#fffff7;stroke:#fffff7"/><g style="fill:#eddee0;stroke:#eddee0"><path d="m383 246l2 1 .5-2 .5-2v-1.5-1.5-1-1-2-2l-.5-1-.5-1-.5-.5-.5-.5-1 1-1 1v1.5 1.5 1 1 1.5 1.5 1.5 1.5l.5 1 .5 1"/><path d="m369 243v1h1.5 1.5v-2.5-2.5-2-2-2.5-2.5-2-2l-1-.5-1-.5v2 2l-.5 1.5-.5 1.5v2.5 2.5 3 3"/></g><path d="m411 242l4-20-2 8.5-2 8.5v1.5 1.5" style="fill:#727079;stroke:#727079"/><path d="m341 239v1h1.5 1.5l-1.5-.5-1.5-.5" style="fill:#eddee0;stroke:#eddee0"/><path d="m466 238h2v-2-2l-.5-2-.5-2-1-1-1-1-1.5-1-1.5-1v2 2l1 1.5 1 1.5v2 2l1 .5 1 .5" style="fill:#727079;stroke:#727079"/><path d="m406 225v1l.5-1.5.5-1.5v-2-2-2.5-2.5-2-2l.5-2 .5-2-.5-1.5-.5-1.5-1 1-1 1v2.5 2.5l-.5 1.5-.5 1.5v2.5 2.5l1-.5 1-.5v2.5 2.5 1.5 1.5" style="fill:#eddee0;stroke:#eddee0"/><path d="m278 217l10-14 5-8.5 5-8.5 3.5-9.5 3.5-9.5-2.5 1-2.5 1-4 9-4 9-4.5 9-4.5 9-2.5 6-2.5 6" style="fill:#4a434a;stroke:#4a434a"/><path d="m306 217v1h.5.5l1-2 1-2 .5-2 .5-2 .5-1.5.5-1.5 1-1.5 1-1.5.5-1.5.5-1.5.5-2 .5-2 .5-1.5.5-1.5.5-1.5.5-1.5.5-.5.5-.5.5-1 .5-1v2 2l3.5-10 3.5-10 5-8.5 5-8.5 1-3 1-3-1.5 1-1.5 1-1 1-1 1-1 1.5-1 1.5-.5 1.5-.5 1.5-1 1.5-1 1.5-1 .5-1 .5-5.5 12-5.5 12-4 8-4 8-.5 1.5-.5 1.5-.5 2-.5 2 1-1 1-1 .5 1 .5 1-.5 1.5-.5 1.5-.5 2-.5 2" style="fill:#5e5b65;stroke:#5e5b65"/><path d="m313 216v1l.5-1 .5-1v-2-2l.5-2 .5-2v-2-2l.5-2 .5-2 .5-1.5.5-1.5 1-1.5 1-1.5v-.5-.5-2-2l-.5 1-.5 1-.5.5-.5.5-.5 1.5-.5 1.5-.5 1.5-.5 1.5-.5 2-.5 2-.5 1.5-.5 1.5-1 1.5-1 1.5-.5 1.5-.5 1.5-.5 2-.5 2 1-.5 1-.5 1-.5 1-.5v2 2" style="fill:#4a434a;stroke:#4a434a"/><path d="m413 203v1l.5-1 .5-1 .5-1.5.5-1.5 1.5-1 1.5-1 1-1 1-1-.5-2-.5-2-.5-1.5-.5-1.5v-1.5-1.5l.5-1.5.5-1.5v-3-3l-.5-1-.5-1-.5-1.5-.5-1.5v2.5 2.5 2 2l-.5 2-.5 2-1-1-1-1-.5-2-.5-2h-.5-.5v1.5 1.5l.5 1.5.5 1.5.5 2 .5 2 .5 1.5.5 1.5-.5 2-.5 2-.5 1.5-.5 1.5v2.5 2.5" style="fill:#eddee0;stroke:#eddee0"/><path d="m421 203l1-1v-2-2l1-.5 1-.5-1-1-1-1-.5-2-.5-2-.5-1.5-.5-1.5v-1.5-1.5-1-1-2-2l-.5-1.5-.5-1.5v3 3l-.5 1.5-.5 1.5v1.5 1.5l.5 1.5.5 1.5.5 2 .5 2-1 1-1 1-1.5 1-1.5 1 1 .5 1 .5 2 .5 2 .5v1 1" style="fill:#ded0cf;stroke:#ded0cf"/><g style="fill:#eddee0;stroke:#eddee0"><path d="m361 195h2l.5-1.5.5-1.5v-2.5-2.5l.5-1.5.5-1.5v-2.5-2.5-1-1h-1-1v-2-2l-.5 1-.5 1v2 2 2.5 2.5l-.5 1.5-.5 1.5v2.5 2.5 1.5 1.5"/><path d="m404 178l-1-42-7 4.5-7 4.5v9 9l2.5-9 2.5-9 2 2 2 2 1.5 3 1.5 3 1.5 11.5 1.5 11.5"/></g><path d="m363 177h2l1.5-12 1.5-12-2 3-2 3-.5 7-.5 7v2 2" style="fill:#ded0cf;stroke:#ded0cf"/><path d="m369 173l5-19-3 6.5-3 6.5.5 3 .5 3" style="fill:#eddee0;stroke:#eddee0"/><path d="m287 167v1l7-2.5 7-2.5.5-8 .5-8-.5-4-.5-4-1 1-1 1-1 1-1 1-1 1-1 1-1 1.5-1 1.5-.5 1.5-.5 1.5-.5 2-.5 2-.5 1.5-.5 1.5-.5 2-.5 2-.5 1.5-.5 1.5-.5 1-.5 1" style="fill:#727079;stroke:#727079"/><path d="m326 162v1l1-.5 1-.5 1-1.5 1-1.5.5-1.5.5-1.5 1-1.5 1-1.5 1-1 1-1 1.5-1 1.5-1 4.5-8.5 4.5-8.5-10.5-2.5-10.5-2.5-3.5 1.5-3.5 1.5 8 2 8 2-5 8-5 8 5-6.5 5-6.5 1 2 1 2v3 3l-5.5 7.5-5.5 7.5" style="fill:#4a434a;stroke:#4a434a"/><path d="m357 151l7-11-3 2.5-3 2.5-.5 3-.5 3" style="fill:#eddee0;stroke:#eddee0"/><path d="m305 135l3 1 1.5-.5 1.5-.5 1-.5 1-.5.5-.5.5-.5 1.5-.5 1.5-.5 1-1 1-1-2 .5-2 .5.5-1 .5-1 .5-1.5.5-1.5-.5-.5-.5-.5-1 1.5-1 1.5-1 1-1 1h-1.5-1.5l-.5 1.5-.5 1.5-1.5 1-1.5 1" style="fill:#4a434a;stroke:#4a434a"/><path d="m441 134l-8-14 3.5 1.5 3.5 1.5-3.5-9-3.5-9-3.5-3-3.5-3-1.5-1.5-1.5-1.5.5 2 .5 2v1 1 1 1 1 1l.5 1.5.5 1.5h.5.5l1 1 1 1 1 1.5 1 1.5.5 1.5.5 1.5.5 2 .5 2 .5 1.5.5 1.5 1 1.5 1 1.5.5 2 .5 2 1.5 1 1.5 1 1 .5 1 .5" style="fill:#eddee0;stroke:#eddee0"/><path d="m434 130l2 1-.5-2-.5-2-1-1.5-1-1.5-.5-1.5-.5-1.5-.5-2-.5-2-.5-1.5-.5-1.5-1-1.5-1-1.5-1-1-1-1h-.5-.5l.5 1.5.5 1.5.5 1.5.5 1.5 1 1.5 1 1.5v2 2l1 1.5 1 1.5.5 1.5.5 1.5 1 1 1 1" style="fill:#fffff7;stroke:#fffff7"/><path d="m371 128l3 1h2 2 2.5 2.5 2 2v-.5-.5l-3.5-7.5-3.5-7.5-8.5-4.5-8.5-4.5 7 5.5 7 5.5 1 6 1 6-1-.5-1-.5-1.5-.5-1.5-.5-2-.5-2-.5-1.5-.5-1.5-.5h-2.5-2.5-2-2l1-1 1-1v-1.5-1.5l-.5-1.5-.5-1.5-.5-1-.5-1-6.5 4.5-6.5 4.5 8 2.5 8 2.5 5 .5 5 .5" style="fill:#5e5b65;stroke:#5e5b65"/><path d="m387 128v1h1.5 1.5 2 2 2.5 2.5 2 2 2.5 2.5l1.5-.5 1.5-.5-1.5-1-1.5-1-.5-1-.5-1-1.5-1-1.5-1h-1-1l-.5-1-.5-1h-1.5-1.5l-1-1-1-1-.5.5-.5.5-.5 1-.5 1-.5 1.5-.5 1.5.5.5.5.5 1 .5 1 .5-1 1-1 1-1.5-.5-1.5-.5-1-.5-1-.5-1-.5-1-.5-.5-.5-.5-.5v-1.5-1.5l.5-1.5.5-1.5.5-1.5.5-1.5v-2.5-2.5l-1-1-1-1-2 .5-2 .5-1.5-.5-1.5-.5-2.5-1-2.5-1-1-.5-1-.5h-2-2l-1-1-1-1-1-.5-1-.5-.5-.5-.5-.5-.5-.5-.5-.5-.5-.5-.5-.5-2-1-2-1 .5 1 .5 1v.5.5l1 .5 1 .5 1.5 1.5 1.5 1.5 8.5 4.5 8.5 4.5 3.5 7.5 3.5 7.5" style="fill:#4a434a;stroke:#4a434a"/><path d="m422 128l-1-15-2.5-8-2.5-8-2.5-7.5-2.5-7.5-5.5-6-5.5-6-2.5-5.5-2.5-5.5-.5 2.5-.5 2.5v1.5 1.5 1 1 1.5 1.5 1 1l.5.5.5.5-.5.5-.5.5v1 1 1.5 1.5l-.5.5-.5.5v1 1l-.5 1-.5 1v2 2l.5 1.5.5 1.5.5 2 .5 2v2 2l.5 1.5.5 1.5.5.5.5.5v1.5 1.5l.5 1 .5 1 .5 1.5.5 1.5.5.5.5.5.5.5.5.5v1 1l1 .5 1 .5.5.5.5.5.5.5.5.5.5.5.5.5 1 1 1 1 1.5 1 1.5 1 1.5.5 1.5.5 2 .5 2 .5 1.5.5 1.5.5h1 1" style="fill:#20160d;stroke:#20160d"/><path d="m379 127l-2-12-7-5.5-7-5.5-1.5-1.5-1.5-1.5-1-.5-1-.5-1 2-1 2 .5 2 .5 2 .5 1.5.5 1.5v1 1l.5 1 .5 1 .5 1.5.5 1.5v1.5 1.5l-1 1-1 1h2 2 2.5 2.5l1.5.5 1.5.5 2 .5 2 .5 1.5.5 1.5.5 1 .5 1 .5" style="fill:#727079;stroke:#727079"/><path d="m391 127l3 1 1-1 1-1-1-.5-1-.5-.5-.5-.5-.5.5-1.5.5-1.5.5-1 .5-1 .5-.5.5-.5 1 1 1 1h1.5 1.5l-1-1.5-1-1.5-1-1.5-1-1.5h-1-1l-.5 2-.5 2-.5 1.5-.5 1.5-1 1.5-1 1.5v1.5 1.5" style="fill:#583a2d;stroke:#583a2d"/><path d="m318 126l21-3 7-6.5 7-6.5-1.5-9.5-1.5-9.5-4-8.5-4-8.5-2-11-2-11v-9.5-9.5l4.5-3 4.5-3 1-.5 1-.5.5-.5.5-.5.5-1 .5-1 .5-.5.5-.5.5-.5.5-.5v-1-1l1-.5 1-.5-5.5.5-5.5.5-4 7.5-4 7.5-1.5 10.5-1.5 10.5-2 9.5-2 9.5-2.5 10.5-2.5 10.5-1.5 10-1.5 10-1.5 5.5-1.5 5.5" style="fill:#20160d;stroke:#20160d"/><path d="m389 126l2 1v-1.5-1.5l1-1.5 1-1.5.5-1.5.5-1.5.5-2 .5-2h1 1l1 1.5 1 1.5 1 1.5 1 1.5.5 1 .5 1h1 1l1.5 1 1.5 1v-.5-.5l-1-1-1-1-.5-.5-.5-.5-.5-.5-.5-.5-.5-.5-.5-.5-1-.5-1-.5v-1-1l-.5-.5-.5-.5-.5-.5-.5-.5-.5-1.5-.5-1.5-.5-.5-.5-.5-1-.5-1-.5v-1-1l-.5-.5-.5-.5v-1-1-1.5-1.5-1-1h-1-1v-1-1l-.5-1-.5-1v-1-1-1-1-1-1l1-1 1-1 .5-1 .5-1v-1-1l.5-.5.5-.5v-1.5-1.5-1-1l.5-.5.5-.5-.5-.5-.5-.5v-1-1-1.5-1.5-1-1-1.5-1.5-2-2-2-2l-1-1.5-1-1.5-.5-1.5-.5-1.5.5-1.5.5-1.5h-1.5-1.5l.5-1.5.5-1.5-1-1.5-1-1.5-.5-.5-.5-.5-1 .5-1 .5h-1-1-2-2-2-2l-1 .5-1 .5-1.5.5-1.5.5-1.5 1-1.5 1v1 1l2-.5 2-.5 1-1 1-1h1 1l1-.5 1-.5h2 2l1 1 1 1v1 1h-2-2l1 .5 1 .5 2 .5 2 .5-1.5 1.5-1.5 1.5 1 .5 1 .5 1-1 1-1 1.5-.5 1.5-.5.5 1.5.5 1.5 1.5 11.5 1.5 11.5-4.5 8.5-4.5 8.5-10 4.5-10 4.5 1 .5 1 .5 1 1 1 1h2 2l1 .5 1 .5h2 2l1.5.5 1.5.5h1.5 1.5l1.5-.5 1.5-.5 1.5 1 1.5 1v2 2l-.5 2-.5 2-.5 1.5-.5 1.5-.5 1.5-.5 1.5v1.5 1.5l1 .5 1 .5" style="fill:#362d30;stroke:#362d30"/><path d="m386 124l1 1v-1.5-1.5l.5-1.5.5-1.5.5-1.5.5-1.5.5-2 .5-2v-2-2l-1.5-1-1.5-1-1.5.5-1.5.5h-1.5-1.5l-1.5-.5-1.5-.5h-2-2l2.5 1 2.5 1 1.5.5 1.5.5 2-.5 2-.5 1 1 1 1v2.5 2.5l-.5 1.5-.5 1.5-.5 1.5-.5 1.5v1.5 1.5" style="fill:#583a2d;stroke:#583a2d"/><path d="m396 109l1 1-.5-1-.5-1v-1.5-1.5l-.5-.5-.5-.5-.5-1.5-.5-1.5v-2-2l-.5-2-.5-2-.5-1.5-.5-1.5v-2-2l-1 1-1 1v1 1 1 1 1 1l.5 1 .5 1v1 1h1 1v1 1 1.5 1.5 1 1l.5.5.5.5v1 1l1 .5 1 .5" style="fill:#291c24;stroke:#291c24"/><path d="m320 102l3-21v-6.5-6.5l-1.5 11.5-1.5 11.5v5.5 5.5" style="fill:#947669;stroke:#947669"/><path d="m363 101l1 1 10-4.5 10-4.5 4.5-8.5 4.5-8.5-1.5-11.5-1.5-11.5-.5 1-.5 1v.5.5l-1 9-1 9-2 8-2 8-10.5 5-10.5 5 .5.5.5.5" style="fill:#583a2d;stroke:#583a2d"/><path d="m361 99l1 1 10.5-5 10.5-5 2-8 2-8 1-9 1-9-1-.5-1-.5-1.5.5-1.5.5-.5 1-.5 1v2 2l-.5.5-.5.5v1 1l-.5 1-.5 1-.5 1.5-.5 1.5.5 1.5.5 1.5 1.5 1 1.5 1v2 2 1 1l-.5 1-.5 1-.5 1.5-.5 1.5-.5.5-.5.5-1 .5-1 .5-.5 1.5-.5 1.5-1 1-1 1-1 1-1 1-1 1-1 1-2 .5-2 .5h-2-2l-1.5-.5-1.5-.5-1-1-1-1h-1-1l-.5-1-.5-1-.5-.5-.5-.5-1-1-1-1-1-1-1-1-1-.5-1-.5.5 2 .5 2 1.5 1.5 1.5 1.5 1 1 1 1 1 .5 1 .5 2 1 2 1" style="fill:#755749;stroke:#755749"/><path d="m361 97l3 1h2 2l2-.5 2-.5 1-1 1-1 1-1 1-1-1.5-1-1.5-1-1-.5-1-.5-1.5-.5-1.5-.5h-2-2l-.5.5-.5.5-.5 1-.5 1-.5 1-.5 1-1-1-1-1-.5-.5-.5-.5.5-.5.5-.5.5-.5.5-.5-.5-1-.5-1v-1-1l1.5-1 1.5-1v-1-1h-2-2l-1.5 1-1.5 1-1 1-1 1v1 1 .5.5l.5.5.5.5.5.5.5.5.5 1.5.5 1.5.5 1 .5 1h1 1l1 1 1 1" style="fill:#947669;stroke:#947669"/><g style="fill:#727079;stroke:#727079"><path d="m361 94l1-2 .5-1 .5-1 .5-.5.5-.5h2 2l1.5.5 1.5.5 1 .5 1 .5 1.5 1 1.5 1 1-1 1-1 .5-1.5.5-1.5 1-.5 1-.5.5-.5.5-.5.5-1.5.5-1.5.5-1 .5-1v-1-1-2-2l-1.5-1-1.5-1v.5.5l-1 2-1 2-1 1.5-1 1.5v2 2l-1.5.5-1.5.5h-1-1l-1 .5-1 .5h-2-2l-.5.5-.5.5-1-.5-1-.5h-1.5-1.5-.5-.5l.5 1 .5 1-.5.5-.5.5-.5.5-.5.5.5.5.5.5 1 1 1 1"/><path d="m355 92l1 1-.5-1.5-.5-1.5-.5-.5-.5-.5-.5-.5-.5-.5v-.5-.5-1-1l1-1 1-1v-1.5-1.5-.5-.5-2.5-2.5h-1.5-1.5-2-2l-1.5.5-1.5.5 1.5 1 1.5 1h2.5 2.5v2 2l-2 .5-2 .5-.5 1.5-.5 1.5.5 1 .5 1 1 .5 1 .5 1 1 1 1 1 1 1 1"/></g><path d="m360 87h3l1 .5 1 .5.5-.5.5-.5h2 2l1-.5 1-.5h1 1l1.5-.5 1.5-.5v-2-2l-1 1-1 1-1 1-1 1-1.5-.5-1.5-.5-1-1.5-1-1.5v-1-1h1 1l1-.5 1-.5 1.5-.5 1.5-.5 1.5-1 1.5-1 1.5-.5 1.5-.5v-.5-.5h-2-2l-1.5.5-1.5.5h-2-2l-1.5 1-1.5 1 .5.5.5.5-.5.5-.5.5-1 .5-1 .5-1.5.5-1.5.5-.5-.5-.5-.5h-1.5-1.5l-1.5.5-1.5.5v1.5 1.5l1.5-1 1.5-1h2 2v1 1l-1.5 1-1.5 1v1 1h.5.5" style="fill:#755749;stroke:#755749"/><path d="m370 84l3 1 1-1 1-1 1-1 1-1 1-1.5 1-1.5 1-2 1-2-1.5.5-1.5.5-1.5 1-1.5 1-1.5.5-1.5.5-1 .5-1 .5h-1-1v1 1l1 1.5 1 1.5" style="fill:#583a2d;stroke:#583a2d"/><path d="m355 79v1l1.5-.5 1.5-.5h1.5 1.5l.5.5.5.5 1.5-.5 1.5-.5 1-.5 1-.5.5-.5.5-.5-.5-.5-.5-.5-1 .5-1 .5h-2.5-2.5l-1.5-.5-1.5-.5-1-1-1-1v2.5 2.5" style="fill:#947669;stroke:#947669"/><path d="m414 76l1 1-.5-2.5-.5-2.5-1-1.5-1-1.5v-2-2l-1-1.5-1-1.5v-2-2l-1-1.5-1-1.5.5-1.5.5-1.5-3.5-7-3.5-7 3 10 3 10 3 9 3 9" style="fill:#eddee0;stroke:#eddee0"/><path d="m345 74v1l1.5-.5 1.5-.5h2 2 1.5 1.5l-1.5-1-1.5-1-1.5-1-1.5-1-.5-1.5-.5-1.5-1-.5-1-.5-2-1-2-1v2 2l.5 2 .5 2 1 1 1 1" style="fill:#947669;stroke:#947669"/><path d="m362 72h2l1-1 1-1 2 .5 2 .5v-1-1l-1-1.5-1-1.5-.5-1.5-.5-1.5v-1.5-1.5l-1 1-1 1-.5 1.5-.5 1.5-.5 2-.5 2-.5 1.5-.5 1.5" style="fill:#583a2d;stroke:#583a2d"/><g style="fill:#727079;stroke:#727079"><path d="m346 66l2 1 1-1.5 1-1.5h1.5 1.5l1 1 1 1 2 .5 2 .5v-2-2l.5-2 .5-2 1-1 1-1v-2-2l-.5-2-.5-2 1-1 1-1 .5-1 .5-1-1.5.5-1.5.5-.5.5-.5.5h-1-1l-1.5-.5-1.5-.5h-.5-.5l1.5 2 1.5 2 .5 1.5.5 1.5v2 2l-1.5 1-1.5 1-1 1-1 1-2 .5-2 .5-1.5.5-1.5.5-1-1.5-1-1.5-1 1-1 1v1 1l2 1 2 1"/><path d="m381 66v1l.5-1 .5-1v-1-1l.5-.5.5-.5v-2-2l-7 1.5-7 1.5 6 1.5 6 1.5v1 1"/></g><path d="m399 54v-1-1.5-1.5l-.5-.5-.5-.5-.5-1.5-.5-1.5v-1.5-1.5l-.5-.5-.5-.5v-2-2l-.5-1.5-.5-1.5-1.5.5-1.5.5v2 2l.5 1.5.5 1.5 1 1.5 1 1.5.5 1.5.5 1.5.5 2 .5 2 1 .5 1 .5" style="fill:#ded0cf;stroke:#ded0cf"/><path d="m364 52l1-1 1.5-.5 1.5-.5 1.5-1 1.5-1 1.5-.5 1.5-.5h1.5 1.5 1 1 2 2v-1-1l-1-1-1-1h-2-2l-1 .5-1 .5h-1-1l-1 1-1 1-2 .5-2 .5-.5 1-.5 1-1 1-1 1v.5.5" style="fill:#583a2d;stroke:#583a2d"/><path d="m375 52h2l1.5.5 1.5.5 1-.5 1-.5 1.5-1.5 1.5-1.5-2-.5-2-.5-1-.5-1-.5h-1-1l-1 1-1 1-1 1-1 1 1 .5 1 .5" style="fill:#20160d;stroke:#20160d"/><path d="m355 46l3 1h1 1l.5-.5.5-.5 1.5-.5 1.5-.5-9.5-1-9.5-1 3.5 1 3.5 1 1 .5 1 .5h.5.5" style="fill:#947669;stroke:#947669"/><path d="m383 41h2l1-.5 1-.5-.5-1.5-.5-1.5-1-1-1-1-.5-2-.5-2-1 1-1 1-.5 2-.5 2-.5 1.5-.5 1.5h-2-2v.5.5h2 2 2 2" style="fill:#583a2d;stroke:#583a2d"/><path d="m370 40h2l.5-.5.5-.5v-.5-.5l-.5-1.5-.5-1.5v-1-1l-.5-1-.5-1-.5-1.5-.5-1.5h-1-1-1.5-1.5-3-3l.5.5.5.5 1.5.5 1.5.5 2 .5 2 .5 1 1 1 1-.5 2-.5 2 .5 1.5.5 1.5h.5.5" style="fill:#727079;stroke:#727079"/><path d="m391 39l1 1v-2-2l1.5-.5 1.5-.5v-1.5-1.5l-.5-.5-.5-.5v-1-1-1-1l.5-1 .5-1h1 1l.5.5.5.5.5.5.5.5-.5-1-.5-1v-1-1l-.5-.5-.5-.5-.5-1-.5-1-1 2-1 2-1 1-1 1-1 1.5-1 1.5v2 2h-1-1l-1-.5-1-.5 1 1.5 1 1.5.5.5.5.5.5.5.5.5.5 1 .5 1" style="fill:#cebec1;stroke:#cebec1"/><path d="m373 38v1l1-.5 1-.5h1 1l.5-2 .5-2-1-1-1-1-1-1.5-1-1.5-1.5-.5-1.5-.5-2-.5-2-.5h-1-1-2-2l-1 .5-1 .5h3 3 1.5 1.5 1 1l.5 1.5.5 1.5.5 1 .5 1v1 1l.5 1.5.5 1.5" style="fill:#5e5b65;stroke:#5e5b65"/><path d="m388 33h2v-2-2l1-1.5 1-1.5 1-1 1-1 1-2 1-2-.5-1.5-.5-1.5.5-1.5.5-1.5-1.5-1-1.5-1v1 1 1 1l.5.5.5.5v1 1l-.5 1-.5 1v1 1l-.5.5-.5.5-.5.5-.5.5-1 .5-1 .5v1 1 1 1h-1-1-.5-.5v1 1l1 .5 1 .5" style="fill:#ded0cf;stroke:#ded0cf"/><path d="m387 30h2v-1-1-1-1l1-.5 1-.5.5-.5.5-.5.5-.5.5-.5v-1-1l.5-1 .5-1v-1-1l-.5-.5-.5-.5v-1-1-1-1l-1.5-1-1.5-1-.5 1.5-.5 1.5h-.5-.5l-1-1-1-1-2-.5-2-.5-1.5.5-1.5.5v2.5 2.5l-.5 1.5-.5 1.5v1 1l1-.5 1-.5v-2-2l1-1 1-1 .5 2 .5 2 .5 1.5.5 1.5.5 2 .5 2 .5 2.5.5 2.5h.5.5" style="fill:#eddee0;stroke:#eddee0"/><path d="m350 28h2 2 2l-.5-1-.5-1-1.5-.5-1.5-.5 1-1.5 1-1.5h2 2l1-1.5 1-1.5h-1-1-1-1l-.5-.5-.5-.5-1 .5-1 .5v1 1l-.5.5-.5.5-.5.5-.5.5-.5 1-.5 1-.5.5-.5.5-1 .5-1 .5 1.5.5 1.5.5" style="fill:#362d30;stroke:#362d30"/></g></svg>